<svg width="16" height="20" viewBox="0 0 16 20" fill="none" xmlns="http://www.w3.org/2000/svg">
<path d="M14.25 13.75V18.125C14.25 18.2908 14.1842 18.4497 14.0669 18.5669C13.9497 18.6842 13.7908 18.75 13.625 18.75H2.375C2.20924 18.75 2.05027 18.6842 1.93306 18.5669C1.81585 18.4497 1.75 18.2908 1.75 18.125V9.375C1.75 9.20924 1.81585 9.05027 1.93306 8.93306C2.05027 8.81585 2.20924 8.75 2.375 8.75H13.625C13.7908 8.75 13.9497 8.81585 14.0669 8.93306C14.1842 9.05027 14.25 9.20924 14.25 9.375V13.75ZM15.5 13.75V9.375C15.5 8.87772 15.3025 8.40081 14.9508 8.04917C14.5992 7.69754 14.1223 7.5 13.625 7.5H2.375C1.87772 7.5 1.40081 7.69754 1.04917 8.04917C0.697544 8.40081 0.5 8.87772 0.5 9.375V18.125C0.5 18.6223 0.697544 19.0992 1.04917 19.4508C1.40081 19.8025 1.87772 20 2.375 20H13.625C14.1223 20 14.5992 19.8025 14.9508 19.4508C15.3025 19.0992 15.5 18.6223 15.5 18.125V13.75ZM4.25 8.125V5C4.25 4.00544 4.64509 3.05161 5.34835 2.34835C6.05161 1.64509 7.00544 1.25 8 1.25C8.99456 1.25 9.94839 1.64509 10.6516 2.34835C11.3549 3.05161 11.75 4.00544 11.75 5V8.125C11.75 8.29076 11.8158 8.44973 11.9331 8.56694C12.0503 8.68415 12.2092 8.75 12.375 8.75C12.5408 8.75 12.6997 8.68415 12.8169 8.56694C12.9342 8.44973 13 8.29076 13 8.125V5C13 3.67392 12.4732 2.40215 11.5355 1.46447C10.5979 0.526784 9.32608 0 8 0C6.67392 0 5.40215 0.526784 4.46447 1.46447C3.52678 2.40215 3 3.67392 3 5V8.125C3 8.29076 3.06585 8.44973 3.18306 8.56694C3.30027 8.68415 3.45924 8.75 3.625 8.75C3.79076 8.75 3.94973 8.68415 4.06694 8.56694C4.18415 8.44973 4.25 8.29076 4.25 8.125ZM8 12.5C7.7515 12.5004 7.51335 12.5995 7.33787 12.7755C7.16239 12.9514 7.06395 13.1898 7.06417 13.4383C7.06439 13.6868 7.16326 13.9251 7.33905 14.1007C7.51484 14.2763 7.75317 14.375 8.00167 14.375C8.25016 14.375 8.48849 14.2763 8.66428 14.1007C8.84008 13.9251 8.93895 13.6868 8.93917 13.4383C8.93939 13.1898 8.84094 12.9514 8.66546 12.7755C8.48998 12.5995 8.25183 12.5004 8.00333 12.5H7.99833C7.83257 12.5004 7.67378 12.5667 7.55688 12.6842C7.43998 12.8018 7.37456 12.9609 7.375 13.1267C7.37544 13.2924 7.44171 13.4512 7.55924 13.5681C7.67676 13.685 7.83591 13.7504 8.00167 13.75H8C7.91712 13.75 7.83763 13.7171 7.77903 13.6585C7.72042 13.5999 7.6875 13.5204 7.6875 13.4375C7.6875 13.3546 7.72042 13.2751 7.77903 13.2165C7.83763 13.1579 7.91712 13.125 8 13.125C8.08288 13.125 8.16237 13.1579 8.22097 13.2165C8.27958 13.2751 8.3125 13.3546 8.3125 13.4375C8.3125 13.5204 8.27958 13.5999 8.22097 13.6585C8.16237 13.7171 8.08288 13.75 8 13.75C8.16576 13.75 8.32473 13.6842 8.44194 13.5669C8.55915 13.4497 8.625 13.2908 8.625 13.125C8.625 12.9592 8.55915 12.8003 8.44194 12.6831C8.32473 12.5658 8.16576 12.5 8 12.5Z" fill="black" fill-opacity="0.6"/>
</svg>
