<svg width="20" height="18" viewBox="0 0 20 18" fill="none" xmlns="http://www.w3.org/2000/svg">
<path d="M9.76687 10.9125C9.08644 10.3621 8.53183 9.67239 8.14041 8.88969C7.74898 8.10698 7.52983 7.24949 7.4977 6.37496C7.55012 4.80022 8.22432 3.3104 9.3727 2.23162C9.37687 2.22746 9.36937 2.22746 9.36437 2.22329C9.93945 2.76311 10.402 3.4114 10.7254 4.13081C11.0488 4.85022 11.2266 5.62652 11.2485 6.41496C11.2118 7.28277 10.9905 8.1328 10.5994 8.90834C10.2083 9.68387 9.65625 10.3671 8.9802 10.9125H9.76687ZM8.9802 11.8841C9.09148 11.9742 9.23034 12.0234 9.37354 12.0234C9.51673 12.0234 9.65559 11.9742 9.76687 11.8841C10.5858 11.2215 11.2532 10.3911 11.7243 9.44882C12.1953 8.50657 12.459 7.47435 12.4977 6.42162C12.4763 5.46381 12.265 4.51977 11.8759 3.64429C11.4868 2.76881 10.9277 1.97932 10.231 1.32162C9.99931 1.0979 9.68935 0.973555 9.36726 0.975112C9.04516 0.976669 8.73642 1.104 8.50687 1.32996C7.81654 1.98195 7.2617 2.76381 6.87416 3.63068C6.48663 4.49756 6.27402 5.43241 6.24854 6.38162C6.28265 7.44104 6.54425 8.48072 7.01558 9.43014C7.48691 10.3795 8.15693 11.2165 8.9802 11.8841ZM12.1577 6.03996C13.2473 5.30015 14.5357 4.90844 15.8527 4.91662L15.8552 4.91579C15.8787 5.70234 15.7465 6.48578 15.4664 7.22113C15.1862 7.95647 14.7636 8.62923 14.2227 9.20079C13.5832 9.7883 12.8258 10.2327 12.0009 10.5045C11.1761 10.7762 10.3029 10.869 9.43937 10.7766C9.27449 10.7592 9.10943 10.8079 8.9805 10.9122C8.85157 11.0164 8.76933 11.1676 8.75187 11.3325C8.73441 11.4973 8.78316 11.6624 8.8874 11.7913C8.99164 11.9203 9.14283 12.0025 9.3077 12.02C10.3554 12.1305 11.4147 12.0153 12.4141 11.6821C13.4136 11.3489 14.3301 10.8054 15.1019 10.0883C15.7623 9.39774 16.2794 8.58318 16.6233 7.69166C16.9671 6.80013 17.1309 5.84931 17.1052 4.89412C17.1004 4.56661 16.9668 4.25416 16.7333 4.02443C16.4998 3.79469 16.1853 3.66615 15.8577 3.66662C14.2887 3.65762 12.7539 4.12486 11.456 5.00662C11.3846 5.05113 11.323 5.10959 11.2747 5.17851C11.2264 5.24742 11.1926 5.32537 11.1752 5.40768C11.1578 5.49 11.1572 5.57497 11.1734 5.65753C11.1896 5.74008 11.2223 5.81851 11.2696 5.88811C11.3169 5.95771 11.3777 6.01706 11.4484 6.06259C11.5192 6.10812 11.5984 6.13889 11.6813 6.15307C11.7643 6.16725 11.8492 6.16454 11.9311 6.1451C12.0129 6.12566 12.09 6.0899 12.1577 6.03996ZM7.29187 5.01746C5.98487 4.1204 4.43283 3.64864 2.8477 3.66662C2.16854 3.66579 1.61104 4.21996 1.60604 4.90662C1.5807 5.85321 1.74208 6.79552 2.08095 7.67974C2.41982 8.56395 2.92955 9.37275 3.58103 10.06C4.36107 10.786 5.28763 11.3365 6.29832 11.6743C7.30901 12.0121 8.38036 12.1294 9.4402 12.0183C9.5246 12.0133 9.60711 11.9913 9.68274 11.9535C9.75837 11.9157 9.82555 11.863 9.88022 11.7985C9.93489 11.734 9.97591 11.6591 10.0008 11.5783C10.0257 11.4975 10.0339 11.4125 10.025 11.3285C10.0161 11.2444 9.9902 11.163 9.94893 11.0892C9.90765 11.0154 9.85184 10.9508 9.78486 10.8992C9.71788 10.8476 9.64114 10.8102 9.55926 10.7891C9.47739 10.768 9.39209 10.7638 9.30853 10.7766C8.43241 10.8694 7.54658 10.7741 6.71021 10.4972C5.87385 10.2203 5.10619 9.76806 4.45853 9.17079C3.3854 8.02353 2.80937 6.49852 2.85604 4.92829L2.8552 4.91662C4.18535 4.90022 5.48809 5.29517 6.5852 6.04746C6.72187 6.13383 6.8867 6.16388 7.04506 6.1313C7.20343 6.09871 7.343 6.00602 7.43447 5.87271C7.52593 5.73939 7.56218 5.57581 7.53559 5.41633C7.509 5.25686 7.42164 5.11389 7.29187 5.01746ZM3.17187 8.32246C1.31937 9.11246 -0.00146484 10.5858 -0.00146484 12.0233C-0.00146484 14.915 4.51687 17.0233 9.99854 17.0233C11.9705 17.0413 13.9329 16.7469 15.8127 16.1508C15.9392 16.1106 16.0496 16.0312 16.128 15.9241C16.2063 15.817 16.2486 15.6877 16.2485 15.555V12.6483L15.6235 13.2733H19.276C19.4089 13.2733 19.5382 13.2309 19.6454 13.1524C19.7525 13.0739 19.8318 12.9633 19.8719 12.8366C19.9552 12.5741 19.9969 12.3008 19.9985 12.0258C19.9985 10.3025 18.3435 8.81079 15.766 7.90579C15.6886 7.87859 15.6065 7.86693 15.5245 7.87145C15.4425 7.87598 15.3622 7.89661 15.2882 7.93217C15.2142 7.96772 15.1479 8.01751 15.0931 8.07869C15.0383 8.13986 14.9961 8.21123 14.969 8.2887C14.9418 8.36618 14.9301 8.44826 14.9346 8.53025C14.9391 8.61224 14.9598 8.69254 14.9953 8.76655C15.0309 8.84057 15.0807 8.90686 15.1418 8.96163C15.203 9.01641 15.2744 9.05859 15.3519 9.08579C17.4852 9.83412 18.7485 10.9733 18.7485 12.0233C18.7485 12.17 18.7252 12.3183 18.6802 12.46L19.276 12.6483V12.0233H15.6235C15.4578 12.0233 15.2988 12.0891 15.1816 12.2063C15.0644 12.3236 14.9985 12.4825 14.9985 12.6483V15.555L15.4344 14.9591C13.6787 15.5156 11.846 15.7904 10.0044 15.7733C5.12437 15.7733 1.24854 13.965 1.24854 12.0233C1.24854 11.1733 2.22354 10.0858 3.66187 9.47246C3.81437 9.40748 3.93481 9.28458 3.9967 9.1308C4.05858 8.97702 4.05685 8.80496 3.99187 8.65246C3.92689 8.49996 3.80399 8.37951 3.65021 8.31763C3.49643 8.25574 3.32437 8.25748 3.17187 8.32246Z" fill="black" fill-opacity="0.6"/>
</svg>
