<svg width="20" height="20" viewBox="0 0 20 20" fill="none" xmlns="http://www.w3.org/2000/svg">
<path d="M11.87 11.7967C11.6978 10.4298 11.0299 9.17368 9.99312 8.26651C8.95631 7.35933 7.62262 6.86419 6.245 6.875C4.8341 6.86586 3.47133 7.38751 2.42717 8.33643C1.38301 9.28535 0.733775 10.5922 0.608333 11.9975C0.593855 12.1624 0.645402 12.3264 0.751662 12.4533C0.857921 12.5803 1.01021 12.6599 1.17511 12.6747C1.34 12.6895 1.50402 12.6382 1.63118 12.5322C1.75834 12.4262 1.83823 12.274 1.85333 12.1092C1.95144 11.015 2.4576 9.99774 3.27125 9.2596C4.08489 8.52145 5.14645 8.11643 6.245 8.125C7.3181 8.11469 8.35761 8.49893 9.16602 9.20471C9.97443 9.9105 10.4954 10.8887 10.63 11.9533C10.6391 12.0357 10.6646 12.1154 10.7048 12.1879C10.7451 12.2603 10.7993 12.324 10.8644 12.3753C10.9295 12.4266 11.0041 12.4644 11.084 12.4866C11.1638 12.5087 11.2473 12.5148 11.3295 12.5044C11.4117 12.494 11.4911 12.4674 11.5629 12.4261C11.6347 12.3847 11.6976 12.3295 11.7479 12.2637C11.7982 12.1978 11.8349 12.1226 11.8559 12.0424C11.8768 11.9623 11.8816 11.8787 11.87 11.7967ZM8.4375 3.4375C8.4375 3.72477 8.38092 4.00922 8.27099 4.27462C8.16105 4.54002 7.99992 4.78117 7.7968 4.9843C7.59367 5.18742 7.35252 5.34855 7.08712 5.45849C6.82172 5.56842 6.53727 5.625 6.25 5.625C5.96273 5.625 5.67828 5.56842 5.41288 5.45849C5.14748 5.34855 4.90633 5.18742 4.7032 4.9843C4.50008 4.78117 4.33895 4.54002 4.22901 4.27462C4.11908 4.00922 4.0625 3.72477 4.0625 3.4375V1.25H8.4375V3.4375ZM9.6875 3.4375V1.25C9.6875 0.918479 9.5558 0.600537 9.32138 0.366116C9.08696 0.131696 8.76902 0 8.4375 0L4.0625 0C3.73098 0 3.41304 0.131696 3.17862 0.366116C2.9442 0.600537 2.8125 0.918479 2.8125 1.25V3.4375C2.8125 4.34918 3.17466 5.22352 3.81932 5.86818C4.46398 6.51284 5.33832 6.875 6.25 6.875C7.16168 6.875 8.03602 6.51284 8.68068 5.86818C9.32534 5.22352 9.6875 4.34918 9.6875 3.4375ZM19.375 18.75H0.625L1.25 19.375V13.125C1.25 12.9592 1.31585 12.8003 1.43306 12.6831C1.55027 12.5658 1.70924 12.5 1.875 12.5H18.125C18.2908 12.5 18.4497 12.5658 18.5669 12.6831C18.6842 12.8003 18.75 12.9592 18.75 13.125V19.375L19.375 18.75ZM19.375 20C19.5408 20 19.6997 19.9342 19.8169 19.8169C19.9342 19.6997 20 19.5408 20 19.375V13.125C20 12.6277 19.8025 12.1508 19.4508 11.7992C19.0992 11.4475 18.6223 11.25 18.125 11.25H1.875C1.37772 11.25 0.900805 11.4475 0.549175 11.7992C0.197544 12.1508 0 12.6277 0 13.125L0 19.375C0 19.72 0.28 20 0.625 20H19.375ZM3.64667 4.18083C4.48286 3.89173 5.36191 3.74606 6.24667 3.75C7.13514 3.7455 8.01794 3.89175 8.8575 4.1825C9.0142 4.23665 9.18599 4.22633 9.33508 4.15382C9.48417 4.0813 9.59835 3.95253 9.6525 3.79583C9.70665 3.63913 9.69633 3.46734 9.62382 3.31825C9.5513 3.16916 9.42253 3.05498 9.26583 3.00083C8.29548 2.66478 7.27522 2.49544 6.24833 2.5C5.22428 2.496 4.2069 2.66505 3.23917 3C3.08722 3.05768 2.96372 3.17229 2.89486 3.3195C2.826 3.46672 2.8172 3.63497 2.87031 3.78857C2.92343 3.94217 3.03429 4.06904 3.17938 4.14227C3.32447 4.2155 3.49238 4.22933 3.6475 4.18083H3.64667ZM13.125 11.8917C13.1427 11.2286 13.423 10.5998 13.9044 10.1434C14.3857 9.68709 15.0286 9.44065 15.6917 9.45833C16.3547 9.47601 16.9836 9.75636 17.4399 10.2377C17.8962 10.719 18.1427 11.362 18.125 12.025C18.1228 12.1071 18.1368 12.1888 18.1662 12.2654C18.1956 12.3421 18.2398 12.4122 18.2963 12.4718C18.3528 12.5314 18.4204 12.5793 18.4954 12.6127C18.5704 12.6461 18.6513 12.6645 18.7333 12.6667C18.8154 12.6689 18.8971 12.6549 18.9738 12.6255C19.0504 12.5961 19.1206 12.5519 19.1802 12.4954C19.2397 12.4389 19.2876 12.3712 19.321 12.2962C19.3545 12.2213 19.3728 12.1404 19.375 12.0583C19.4015 11.0638 19.0319 10.0994 18.3474 9.37739C18.0084 9.01989 17.6024 8.73264 17.1525 8.53205C16.7025 8.33147 16.2175 8.22147 15.725 8.20833C15.2325 8.1952 14.7423 8.27919 14.2823 8.45552C13.8223 8.63184 13.4016 8.89704 13.0441 9.23597C12.322 9.92048 11.9015 10.8638 11.875 11.8583C11.8706 12.0241 11.9322 12.1848 12.0463 12.3052C12.1604 12.4255 12.3176 12.4956 12.4833 12.5C12.6491 12.5044 12.8098 12.4428 12.9302 12.3287C13.0505 12.2146 13.1206 12.0574 13.125 11.8917ZM16.25 8.75V6.875C16.25 6.70924 16.1842 6.55027 16.0669 6.43306C15.9497 6.31585 15.7908 6.25 15.625 6.25C15.4592 6.25 15.3003 6.31585 15.1831 6.43306C15.0658 6.55027 15 6.70924 15 6.875V8.75C15 8.91576 15.0658 9.07473 15.1831 9.19194C15.3003 9.30915 15.4592 9.375 15.625 9.375C15.7908 9.375 15.9497 9.30915 16.0669 9.19194C16.1842 9.07473 16.25 8.91576 16.25 8.75ZM14.375 7.5H16.875C17.0408 7.5 17.1997 7.43415 17.3169 7.31694C17.4342 7.19973 17.5 7.04076 17.5 6.875C17.5 6.70924 17.4342 6.55027 17.3169 6.43306C17.1997 6.31585 17.0408 6.25 16.875 6.25H14.375C14.2092 6.25 14.0503 6.31585 13.9331 6.43306C13.8158 6.55027 13.75 6.70924 13.75 6.875C13.75 7.04076 13.8158 7.19973 13.9331 7.31694C14.0503 7.43415 14.2092 7.5 14.375 7.5Z" fill="black" fill-opacity="0.6"/>
</svg>
