<svg width="16" height="20" viewBox="0 0 16 20" fill="none" xmlns="http://www.w3.org/2000/svg">
<path d="M2.99902 0.625V19.375C2.99902 19.5408 3.06487 19.6997 3.18208 19.8169C3.29929 19.9342 3.45826 20 3.62402 20C3.78978 20 3.94876 19.9342 4.06597 19.8169C4.18318 19.6997 4.24902 19.5408 4.24902 19.375V0.625C4.24902 0.45924 4.18318 0.300269 4.06597 0.183058C3.94876 0.065848 3.78978 1.86265e-08 3.62402 1.86265e-08C3.45826 1.86265e-08 3.29929 0.065848 3.18208 0.183058C3.06487 0.300269 2.99902 0.45924 2.99902 0.625ZM5.49902 0.625V6.25C5.49705 6.74696 5.29864 7.22298 4.94708 7.57423C4.59551 7.92548 4.11932 8.12346 3.62236 8.125C3.12562 8.1228 2.6499 7.92427 2.29896 7.57271C1.94802 7.22115 1.75034 6.74508 1.74902 6.24833V0.625C1.74902 0.45924 1.68318 0.300269 1.56597 0.183058C1.44875 0.065848 1.28978 0 1.12402 0C0.958263 0 0.799292 0.065848 0.682082 0.183058C0.564871 0.300269 0.499023 0.45924 0.499023 0.625V6.25C0.501221 7.07784 0.830938 7.87116 1.41615 8.45669C2.00137 9.04222 2.79452 9.37236 3.62236 9.375C4.45048 9.37324 5.24424 9.04372 5.83013 8.45846C6.41601 7.87319 6.74638 7.07979 6.74902 6.25167V0.625C6.74902 0.45924 6.68318 0.300269 6.56597 0.183058C6.44875 0.065848 6.28978 0 6.12402 0C5.95826 0 5.79929 0.065848 5.68208 0.183058C5.56487 0.300269 5.49902 0.45924 5.49902 0.625ZM11.124 13.75H13.624C14.6099 13.7883 15.4599 13 15.499 11.9908C15.5008 11.9442 15.5008 11.8975 15.499 11.8508C15.2907 6.29083 14.809 3.70083 12.8065 0.573333C12.659 0.347727 12.4428 0.175543 12.1899 0.0822042C11.937 -0.0111341 11.6608 -0.0206789 11.4021 0.0549792C11.1434 0.130637 10.9158 0.287488 10.753 0.502371C10.5903 0.717254 10.5009 0.97878 10.4982 1.24833V19.375C10.4982 19.5408 10.564 19.6997 10.6812 19.8169C10.7985 19.9342 10.9574 20 11.1232 20C11.289 20 11.4479 19.9342 11.5651 19.8169C11.6823 19.6997 11.7482 19.5408 11.7482 19.375V1.2525C11.7482 1.255 11.749 1.2525 11.7507 1.2525C11.7518 1.25187 11.7531 1.2517 11.7544 1.25201C11.7556 1.25232 11.7567 1.25309 11.7574 1.25417C13.599 4.12917 14.049 6.54917 14.249 11.8983V11.9425C14.2434 12.0962 14.1769 12.2414 14.0642 12.3461C13.9516 12.4508 13.8019 12.5065 13.6482 12.5008L11.124 12.5C10.9583 12.5 10.7993 12.5658 10.6821 12.6831C10.5649 12.8003 10.499 12.9592 10.499 13.125C10.499 13.2908 10.5649 13.4497 10.6821 13.5669C10.7993 13.6842 10.9583 13.75 11.124 13.75Z" fill="black" fill-opacity="0.6"/>
</svg>
