<svg width="20" height="20" viewBox="0 0 20 20" fill="none" xmlns="http://www.w3.org/2000/svg">
<path d="M8.125 10.625H1.44C1.38961 10.625 1.34128 10.605 1.30565 10.5694C1.27002 10.5337 1.25 10.4854 1.25 10.435V5.38C1.25 4.825 1.7 4.375 2.255 4.375H17.7442C18.2992 4.375 18.75 4.825 18.75 5.38V10.435C18.75 10.46 18.7451 10.4847 18.7355 10.5077C18.726 10.5308 18.712 10.5517 18.6943 10.5694C18.6767 10.587 18.6558 10.601 18.6327 10.6105C18.6097 10.6201 18.5849 10.625 18.56 10.625H11.875C11.7092 10.625 11.5503 10.6909 11.4331 10.8081C11.3158 10.9253 11.25 11.0842 11.25 11.25C11.25 11.4158 11.3158 11.5747 11.4331 11.6919C11.5503 11.8092 11.7092 11.875 11.875 11.875H18.56C19.355 11.875 20 11.23 20 10.435V5.38C19.9998 4.78186 19.762 4.2083 19.339 3.78543C18.916 3.36256 18.3423 3.125 17.7442 3.125H2.255C1.65694 3.125 1.08337 3.36258 0.660474 3.78548C0.23758 4.20837 0 4.78194 0 5.38L0 10.435C0 11.23 0.645 11.875 1.44 11.875H8.125C8.29076 11.875 8.44973 11.8092 8.56694 11.6919C8.68415 11.5747 8.75 11.4158 8.75 11.25C8.75 11.0842 8.68415 10.9253 8.56694 10.8081C8.44973 10.6909 8.29076 10.625 8.125 10.625ZM13.75 3.125H6.25L6.875 3.75V2.96834C6.90833 1.99667 7.73833 1.21834 8.73083 1.25H11.25C11.4874 1.24064 11.7243 1.27824 11.9472 1.36065C12.1701 1.44306 12.3744 1.56866 12.5486 1.73024C12.7228 1.89182 12.8634 2.0862 12.9623 2.30224C13.0612 2.51828 13.1165 2.75172 13.125 2.98917V3.75L13.75 3.125ZM13.75 4.375C13.9158 4.375 14.0747 4.30916 14.1919 4.19195C14.3092 4.07473 14.375 3.91576 14.375 3.75V2.96834C14.3639 2.56678 14.2737 2.17135 14.1095 1.80471C13.9454 1.43807 13.7105 1.10741 13.4183 0.831679C13.1262 0.555948 12.7825 0.340558 12.407 0.197846C12.0315 0.0551334 11.6315 -0.0120975 11.23 3.35719e-06H8.75C7.08833 -0.0516633 5.68167 1.26667 5.625 2.9475V3.75C5.625 4.095 5.905 4.375 6.25 4.375H13.75ZM8.75 8.125C8.41848 8.125 8.10054 8.2567 7.86612 8.49112C7.6317 8.72554 7.5 9.04348 7.5 9.375V11.25C7.5 11.913 7.76339 12.5489 8.23223 13.0178C8.70107 13.4866 9.33696 13.75 10 13.75C10.663 13.75 11.2989 13.4866 11.7678 13.0178C12.2366 12.5489 12.5 11.913 12.5 11.25V9.375C12.5 9.04348 12.3683 8.72554 12.1339 8.49112C11.8995 8.2567 11.5815 8.125 11.25 8.125H8.75ZM8.75 9.375H11.25V11.25C11.25 11.5815 11.1183 11.8995 10.8839 12.1339C10.6495 12.3683 10.3315 12.5 10 12.5C9.66848 12.5 9.35054 12.3683 9.11612 12.1339C8.8817 11.8995 8.75 11.5815 8.75 11.25V9.375ZM17.5075 11.345L18.5358 18.03C18.5495 18.1191 18.5438 18.2101 18.519 18.2968C18.4942 18.3835 18.451 18.4638 18.3922 18.5322C18.3335 18.6006 18.2607 18.6555 18.1787 18.6931C18.0968 18.7307 18.0077 18.7501 17.9175 18.75H2.08333C1.99332 18.7498 1.90439 18.7303 1.82265 18.6926C1.74091 18.6549 1.66827 18.5999 1.60971 18.5316C1.55116 18.4632 1.50806 18.383 1.48337 18.2964C1.45868 18.2099 1.45298 18.119 1.46667 18.03L2.4925 11.345C2.50746 11.2628 2.5058 11.1785 2.48761 11.097C2.46943 11.0155 2.43509 10.9384 2.38663 10.8704C2.33817 10.8024 2.27656 10.7448 2.20546 10.701C2.13435 10.6571 2.05519 10.628 1.97264 10.6153C1.89009 10.6026 1.80584 10.6066 1.72485 10.627C1.64387 10.6474 1.56779 10.6839 1.50113 10.7342C1.43446 10.7845 1.37855 10.8476 1.33671 10.9199C1.29486 10.9922 1.26793 11.0721 1.2575 11.155L0.230833 17.84C0.189463 18.1072 0.206409 18.3801 0.28051 18.6401C0.354611 18.9001 0.484109 19.141 0.660111 19.3462C0.836113 19.5514 1.05445 19.7161 1.30012 19.829C1.54579 19.9418 1.81298 20.0002 2.08333 20H17.9167C18.1871 20.0001 18.4543 19.9418 18.7 19.829C18.9458 19.7161 19.1642 19.5515 19.3403 19.3463C19.5165 19.1411 19.6461 18.9002 19.7204 18.6403C19.7947 18.3803 19.8119 18.1073 19.7708 17.84L18.7425 11.155C18.7133 10.9948 18.6228 10.8524 18.4903 10.7579C18.3577 10.6635 18.1935 10.6245 18.0326 10.6492C17.8717 10.674 17.7268 10.7605 17.6287 10.8905C17.5307 11.0204 17.4872 11.1835 17.5075 11.345Z" fill="black" fill-opacity="0.6"/>
</svg>
