<svg width="18" height="20" viewBox="0 0 18 20" fill="none" xmlns="http://www.w3.org/2000/svg">
<path d="M16.5 10V18.125C16.5 18.2908 16.4342 18.4497 16.3169 18.5669C16.1997 18.6842 16.0408 18.75 15.875 18.75H2.125C1.95924 18.75 1.80027 18.6842 1.68306 18.5669C1.56585 18.4497 1.5 18.2908 1.5 18.125V1.875C1.5 1.70924 1.56585 1.55027 1.68306 1.43306C1.80027 1.31585 1.95924 1.25 2.125 1.25H15.875C16.0408 1.25 16.1997 1.31585 16.3169 1.43306C16.4342 1.55027 16.5 1.70924 16.5 1.875V10ZM17.75 10V1.875C17.75 1.37772 17.5525 0.900805 17.2008 0.549175C16.8492 0.197544 16.3723 0 15.875 0L2.125 0C1.62772 0 1.15081 0.197544 0.799175 0.549175C0.447544 0.900805 0.25 1.37772 0.25 1.875V18.125C0.25 18.6223 0.447544 19.0992 0.799175 19.4508C1.15081 19.8025 1.62772 20 2.125 20H15.875C16.3723 20 16.8492 19.8025 17.2008 19.4508C17.5525 19.0992 17.75 18.6223 17.75 18.125V10ZM3.375 3.75H5.875C6.04076 3.75 6.19973 3.68415 6.31694 3.56694C6.43415 3.44973 6.5 3.29076 6.5 3.125C6.5 2.95924 6.43415 2.80027 6.31694 2.68306C6.19973 2.56585 6.04076 2.5 5.875 2.5H3.375C3.20924 2.5 3.05027 2.56585 2.93306 2.68306C2.81585 2.80027 2.75 2.95924 2.75 3.125C2.75 3.29076 2.81585 3.44973 2.93306 3.56694C3.05027 3.68415 3.20924 3.75 3.375 3.75ZM0.875 6.25H17.125C17.2908 6.25 17.4497 6.18415 17.5669 6.06694C17.6842 5.94973 17.75 5.79076 17.75 5.625C17.75 5.45924 17.6842 5.30027 17.5669 5.18306C17.4497 5.06585 17.2908 5 17.125 5H0.875C0.70924 5 0.550269 5.06585 0.433058 5.18306C0.315848 5.30027 0.25 5.45924 0.25 5.625C0.25 5.79076 0.315848 5.94973 0.433058 6.06694C0.550269 6.18415 0.70924 6.25 0.875 6.25ZM12.75 12.5C12.75 13.4946 12.3549 14.4484 11.6516 15.1516C10.9484 15.8549 9.99456 16.25 9 16.25C8.00544 16.25 7.05161 15.8549 6.34835 15.1516C5.64509 14.4484 5.25 13.4946 5.25 12.5C5.25 11.5054 5.64509 10.5516 6.34835 9.84835C7.05161 9.14509 8.00544 8.75 9 8.75C9.99456 8.75 10.9484 9.14509 11.6516 9.84835C12.3549 10.5516 12.75 11.5054 12.75 12.5ZM14 12.5C14 11.1739 13.4732 9.90215 12.5355 8.96447C11.5979 8.02678 10.3261 7.5 9 7.5C7.67392 7.5 6.40215 8.02678 5.46447 8.96447C4.52678 9.90215 4 11.1739 4 12.5C4 13.8261 4.52678 15.0979 5.46447 16.0355C6.40215 16.9732 7.67392 17.5 9 17.5C10.3261 17.5 11.5979 16.9732 12.5355 16.0355C13.4732 15.0979 14 13.8261 14 12.5ZM14 3.4375C13.9171 3.4375 13.8376 3.40458 13.779 3.34597C13.7204 3.28737 13.6875 3.20788 13.6875 3.125C13.6875 3.04212 13.7204 2.96263 13.779 2.90403C13.8376 2.84542 13.9171 2.8125 14 2.8125C14.0829 2.8125 14.1624 2.84542 14.221 2.90403C14.2796 2.96263 14.3125 3.04212 14.3125 3.125C14.3125 3.20788 14.2796 3.28737 14.221 3.34597C14.1624 3.40458 14.0829 3.4375 14 3.4375C14.1658 3.4375 14.3247 3.37165 14.4419 3.25444C14.5592 3.13723 14.625 2.97826 14.625 2.8125C14.625 2.64674 14.5592 2.48777 14.4419 2.37056C14.3247 2.25335 14.1658 2.1875 14 2.1875C13.7514 2.1875 13.5129 2.28627 13.3371 2.46209C13.1613 2.6379 13.0625 2.87636 13.0625 3.125C13.0625 3.37364 13.1613 3.6121 13.3371 3.78791C13.5129 3.96373 13.7514 4.0625 14 4.0625C14.2486 4.0625 14.4871 3.96373 14.6629 3.78791C14.8387 3.6121 14.9375 3.37364 14.9375 3.125C14.9375 2.87636 14.8387 2.6379 14.6629 2.46209C14.4871 2.28627 14.2486 2.1875 14 2.1875C13.8342 2.1875 13.6753 2.25335 13.5581 2.37056C13.4408 2.48777 13.375 2.64674 13.375 2.8125C13.375 2.97826 13.4408 3.13723 13.5581 3.25444C13.6753 3.37165 13.8342 3.4375 14 3.4375ZM10.25 3.4375C10.1671 3.4375 10.0876 3.40458 10.029 3.34597C9.97042 3.28737 9.9375 3.20788 9.9375 3.125C9.9375 3.04212 9.97042 2.96263 10.029 2.90403C10.0876 2.84542 10.1671 2.8125 10.25 2.8125C10.3329 2.8125 10.4124 2.84542 10.471 2.90403C10.5296 2.96263 10.5625 3.04212 10.5625 3.125C10.5625 3.20788 10.5296 3.28737 10.471 3.34597C10.4124 3.40458 10.3329 3.4375 10.25 3.4375C10.4158 3.4375 10.5747 3.37165 10.6919 3.25444C10.8092 3.13723 10.875 2.97826 10.875 2.8125C10.875 2.64674 10.8092 2.48777 10.6919 2.37056C10.5747 2.25335 10.4158 2.1875 10.25 2.1875C10.0014 2.1875 9.7629 2.28627 9.58709 2.46209C9.41127 2.6379 9.3125 2.87636 9.3125 3.125C9.3125 3.37364 9.41127 3.6121 9.58709 3.78791C9.7629 3.96373 10.0014 4.0625 10.25 4.0625C10.4986 4.0625 10.7371 3.96373 10.9129 3.78791C11.0887 3.6121 11.1875 3.37364 11.1875 3.125C11.1875 2.87636 11.0887 2.6379 10.9129 2.46209C10.7371 2.28627 10.4986 2.1875 10.25 2.1875C10.0842 2.1875 9.92527 2.25335 9.80806 2.37056C9.69085 2.48777 9.625 2.64674 9.625 2.8125C9.625 2.97826 9.69085 3.13723 9.80806 3.25444C9.92527 3.37165 10.0842 3.4375 10.25 3.4375ZM7.75 12.5C7.75 12.1685 7.8817 11.8505 8.11612 11.6161C8.35054 11.3817 8.66848 11.25 9 11.25C9.16576 11.25 9.32473 11.1842 9.44194 11.0669C9.55915 10.9497 9.625 10.7908 9.625 10.625C9.625 10.4592 9.55915 10.3003 9.44194 10.1831C9.32473 10.0658 9.16576 10 9 10C8.33696 10 7.70107 10.2634 7.23223 10.7322C6.76339 11.2011 6.5 11.837 6.5 12.5C6.5 12.6658 6.56585 12.8247 6.68306 12.9419C6.80027 13.0592 6.95924 13.125 7.125 13.125C7.29076 13.125 7.44973 13.0592 7.56694 12.9419C7.68415 12.8247 7.75 12.6658 7.75 12.5Z" fill="black" fill-opacity="0.6"/>
</svg>
