<svg width="20" height="18" viewBox="0 0 20 18" fill="none" xmlns="http://www.w3.org/2000/svg">
<path d="M11.8748 14.6251C11.8748 15.1224 11.6772 15.5993 11.3256 15.9509C10.974 16.3026 10.497 16.5001 9.99977 16.5001C9.50249 16.5001 9.02557 16.3026 8.67394 15.9509C8.32231 15.5993 8.12477 15.1224 8.12477 14.6251C8.12477 14.1278 8.32231 13.6509 8.67394 13.2993C9.02557 12.9477 9.50249 12.7501 9.99977 12.7501C10.497 12.7501 10.974 12.9477 11.3256 13.2993C11.6772 13.6509 11.8748 14.1278 11.8748 14.6251ZM13.1248 14.6251C13.1248 13.7963 12.7955 13.0014 12.2095 12.4154C11.6234 11.8293 10.8286 11.5001 9.99977 11.5001C9.17097 11.5001 8.37611 11.8293 7.79006 12.4154C7.20401 13.0014 6.87477 13.7963 6.87477 14.6251C6.87477 15.4539 7.20401 16.2488 7.79006 16.8348C8.37611 17.4209 9.17097 17.7501 9.99977 17.7501C10.8286 17.7501 11.6234 17.4209 12.2095 16.8348C12.7955 16.2488 13.1248 15.4539 13.1248 14.6251ZM14.8581 9.76427C13.5688 8.47528 11.8204 7.75116 9.99727 7.75116C8.17416 7.75116 6.4257 8.47528 5.13643 9.76427C5.02603 9.88275 4.96593 10.0395 4.96879 10.2014C4.97164 10.3633 5.03724 10.5178 5.15175 10.6323C5.26626 10.7468 5.42075 10.8124 5.58266 10.8153C5.74458 10.8181 5.90129 10.758 6.01977 10.6476C6.5421 10.1253 7.1622 9.71093 7.84466 9.42824C8.52712 9.14556 9.25858 9.00006 9.99727 9.00006C10.736 9.00006 11.4674 9.14556 12.1499 9.42824C12.8323 9.71093 13.4524 10.1253 13.9748 10.6476C14.0932 10.758 14.25 10.8181 14.4119 10.8153C14.5738 10.8124 14.7283 10.7468 14.8428 10.6323C14.9573 10.5178 15.0229 10.3633 15.0257 10.2014C15.0286 10.0395 14.9685 9.88275 14.8581 9.76427ZM17.5123 7.11261C13.3631 2.96261 6.63643 2.96261 2.48727 7.11261C2.42586 7.16983 2.37661 7.23883 2.34245 7.31549C2.30829 7.39216 2.28992 7.47492 2.28844 7.55884C2.28696 7.64276 2.3024 7.72612 2.33383 7.80394C2.36527 7.88176 2.41205 7.95246 2.4714 8.01181C2.53075 8.07116 2.60144 8.11794 2.67927 8.14938C2.75709 8.18081 2.84045 8.19625 2.92437 8.19477C3.00829 8.19329 3.09105 8.17492 3.16772 8.14076C3.24438 8.1066 3.31338 8.05735 3.3706 7.99594C7.03227 4.33511 12.9673 4.33511 16.6289 7.99594C16.6862 8.05735 16.7552 8.1066 16.8318 8.14076C16.9085 8.17492 16.9912 8.19329 17.0752 8.19477C17.1591 8.19625 17.2424 8.18081 17.3203 8.14938C17.3981 8.11794 17.4688 8.07116 17.5281 8.01181C17.5875 7.95246 17.6343 7.88176 17.6657 7.80394C17.6971 7.72612 17.7126 7.64276 17.7111 7.55884C17.7096 7.47492 17.6912 7.39216 17.6571 7.31549C17.6229 7.23883 17.5737 7.16983 17.5123 7.11261ZM19.8006 4.11011C14.2798 -1.03573 5.71977 -1.03573 0.199766 4.11011C0.135646 4.16482 0.0832558 4.23195 0.0457488 4.30744C0.00824174 4.38293 -0.0136074 4.46522 -0.0184843 4.54937C-0.0233612 4.63353 -0.011165 4.7178 0.0173706 4.79711C0.0459062 4.87643 0.0901914 4.94915 0.147562 5.01091C0.204933 5.07267 0.274203 5.12218 0.351206 5.15648C0.428209 5.19077 0.511353 5.20913 0.595636 5.21046C0.679919 5.21178 0.7636 5.19605 0.841644 5.16419C0.919687 5.13234 0.990481 5.08503 1.04977 5.02511C6.09143 0.326774 13.9073 0.326774 18.9481 5.02511C19.0082 5.08103 19.0787 5.12457 19.1556 5.15324C19.2325 5.18191 19.3143 5.19516 19.3963 5.19222C19.4784 5.18928 19.559 5.17021 19.6337 5.1361C19.7083 5.102 19.7755 5.05352 19.8314 4.99344C19.8874 4.93336 19.9309 4.86286 19.9596 4.78595C19.9882 4.70904 20.0015 4.62724 19.9985 4.54522C19.9956 4.46319 19.9765 4.38255 19.9424 4.30789C19.9083 4.23324 19.8598 4.16603 19.7998 4.11011H19.8006Z" fill="black" fill-opacity="0.6"/>
</svg>
