<svg width="20" height="20" viewBox="0 0 20 20" fill="none" xmlns="http://www.w3.org/2000/svg">
<path d="M19.9999 11.25C19.9999 9.92394 19.4731 8.65217 18.5355 7.71448C17.5978 6.7768 16.326 6.25002 14.9999 6.25002H12.4999C11.1738 6.25002 9.90208 6.7768 8.9644 7.71448C8.02672 8.65217 7.49993 9.92394 7.49993 11.25C7.49993 12.5761 8.02672 13.8479 8.9644 14.7856C9.90208 15.7232 11.1738 16.25 12.4999 16.25H13.1249L12.6833 16.0667L16.4333 19.8167C16.5207 19.904 16.632 19.9634 16.7532 19.9875C16.8743 20.0116 16.9999 19.9992 17.114 19.9519C17.2282 19.9047 17.3257 19.8246 17.3944 19.722C17.4631 19.6193 17.4998 19.4986 17.4999 19.375V15.1884L17.1416 15.7534C17.995 15.3501 18.7165 14.7131 19.2224 13.9163C19.7283 13.1195 19.9979 12.1955 19.9999 11.2517V11.25ZM18.7499 11.2484C18.7486 11.9559 18.5467 12.6485 18.1677 13.2459C17.7886 13.8433 17.2479 14.3209 16.6083 14.6234C16.5011 14.6739 16.4106 14.7538 16.3471 14.8539C16.2837 14.9539 16.25 15.0699 16.2499 15.1884V19.375L17.3166 18.9334L13.5666 15.1834C13.4495 15.0661 13.2906 15.0002 13.1249 15H12.4999C11.5054 15 10.5515 14.6049 9.84828 13.9017C9.14502 13.1984 8.74993 12.2446 8.74993 11.25C8.74993 10.2555 9.14502 9.30163 9.84828 8.59837C10.5515 7.89511 11.5054 7.50002 12.4999 7.50002H14.9999C15.9945 7.50002 16.9483 7.89511 17.6516 8.59837C18.3548 9.30163 18.7499 10.2555 18.7499 11.25V11.2484ZM5.18326 10.1834L2.68326 12.6834L3.74993 13.125V8.93835C3.74988 8.8199 3.71617 8.7039 3.65273 8.60387C3.58929 8.50383 3.49873 8.42389 3.3916 8.37335C2.62243 8.01006 2.00005 7.39546 1.6271 6.63092C1.25415 5.86639 1.15291 4.99758 1.34007 4.16777C1.52724 3.33797 1.99162 2.59673 2.65665 2.06631C3.32167 1.53589 4.14762 1.24797 4.99826 1.25002H7.49993C8.30748 1.25017 9.09344 1.51088 9.74097 1.99342C10.3885 2.47596 10.8631 3.15455 11.0941 3.92835C11.1414 4.08726 11.2499 4.22087 11.3957 4.29979C11.5415 4.37872 11.7127 4.39648 11.8716 4.34918C12.0305 4.30189 12.1641 4.1934 12.243 4.04759C12.322 3.90178 12.3397 3.73059 12.2924 3.57168C11.9845 2.53976 11.3518 1.63475 10.4884 0.991248C9.6249 0.347742 8.57681 0.000101259 7.49993 1.78535e-05H4.99993C3.86485 -0.00301732 2.76266 0.381025 1.87524 1.08877C0.98782 1.79651 0.368213 2.78566 0.11867 3.89297C-0.130874 5.00028 0.00456061 6.15958 0.502622 7.17956C1.00068 8.19953 1.83161 9.01922 2.85826 9.50335L2.49993 8.93835V13.125C2.50004 13.2486 2.53675 13.3693 2.60544 13.472C2.67412 13.5746 2.77169 13.6547 2.88583 13.7019C2.99996 13.7492 3.12555 13.7616 3.24671 13.7375C3.36788 13.7134 3.47919 13.654 3.5666 13.5667L6.0666 11.0667C6.128 11.0095 6.17726 10.9405 6.21142 10.8638C6.24557 10.7871 6.26394 10.7044 6.26542 10.6205C6.2669 10.5365 6.25147 10.4532 6.22003 10.3754C6.1886 10.2975 6.14181 10.2268 6.08246 10.1675C6.02311 10.1081 5.95242 10.0614 5.8746 10.0299C5.79677 9.99848 5.71341 9.98304 5.6295 9.98453C5.54558 9.98601 5.46282 10.0044 5.38615 10.0385C5.30948 10.0727 5.24048 10.1219 5.18326 10.1834Z" fill="black" fill-opacity="0.6"/>
</svg>
