<svg width="20" height="20" viewBox="0 0 20 20" fill="none" xmlns="http://www.w3.org/2000/svg">
<path d="M1.875 1.875H18.125L17.5 1.25V18.75L18.125 18.125H1.875L2.5 18.75V1.25L1.875 1.875ZM1.875 0.625C1.70924 0.625 1.55027 0.690848 1.43306 0.808058C1.31585 0.925269 1.25 1.08424 1.25 1.25V18.75C1.25 19.095 1.53 19.375 1.875 19.375H18.125C18.2908 19.375 18.4497 19.3092 18.5669 19.1919C18.6842 19.0747 18.75 18.9158 18.75 18.75V1.25C18.75 1.08424 18.6842 0.925269 18.5669 0.808058C18.4497 0.690848 18.2908 0.625 18.125 0.625H1.875ZM0.625 1.875H19.375C19.5408 1.875 19.6997 1.80915 19.8169 1.69194C19.9342 1.57473 20 1.41576 20 1.25C20 1.08424 19.9342 0.925269 19.8169 0.808058C19.6997 0.690848 19.5408 0.625 19.375 0.625H0.625C0.45924 0.625 0.300269 0.690848 0.183058 0.808058C0.065848 0.925269 0 1.08424 0 1.25C0 1.41576 0.065848 1.57473 0.183058 1.69194C0.300269 1.80915 0.45924 1.875 0.625 1.875ZM0.625 19.375H19.375C19.5408 19.375 19.6997 19.3092 19.8169 19.1919C19.9342 19.0747 20 18.9158 20 18.75C20 18.5842 19.9342 18.4253 19.8169 18.3081C19.6997 18.1908 19.5408 18.125 19.375 18.125H0.625C0.45924 18.125 0.300269 18.1908 0.183058 18.3081C0.065848 18.4253 0 18.5842 0 18.75C0 18.9158 0.065848 19.0747 0.183058 19.1919C0.300269 19.3092 0.45924 19.375 0.625 19.375ZM15 12.5V15.4492C15 15.4958 14.9815 15.5405 14.9485 15.5735C14.9155 15.6065 14.8708 15.625 14.8242 15.625H5.17583C5.1292 15.625 5.08448 15.6065 5.0515 15.5735C5.01853 15.5405 5 15.4958 5 15.4492V9.55083C5 9.45333 5.07833 9.375 5.17583 9.375H14.8242C14.9208 9.375 15 9.45417 15 9.55083V12.5ZM16.25 12.5V9.55083C16.2501 9.36356 16.2133 9.1781 16.1417 9.00506C16.0701 8.83202 15.965 8.6748 15.8326 8.54237C15.7002 8.40995 15.543 8.30493 15.3699 8.23331C15.1969 8.1617 15.0114 8.12489 14.8242 8.125H5.17583C4.38833 8.125 3.75 8.76333 3.75 9.55083V15.4492C3.75 16.2367 4.38833 16.875 5.17583 16.875H14.8242C15.0114 16.8751 15.1969 16.8383 15.3699 16.7667C15.543 16.6951 15.7002 16.59 15.8326 16.4576C15.965 16.3252 16.0701 16.168 16.1417 15.9949C16.2133 15.8219 16.2501 15.6364 16.25 15.4492V12.5ZM7.5 11.875H12.5C12.6658 11.875 12.8247 11.8092 12.9419 11.6919C13.0592 11.5747 13.125 11.4158 13.125 11.25C13.125 11.0842 13.0592 10.9253 12.9419 10.8081C12.8247 10.6908 12.6658 10.625 12.5 10.625H7.5C7.33424 10.625 7.17527 10.6908 7.05806 10.8081C6.94085 10.9253 6.875 11.0842 6.875 11.25C6.875 11.4158 6.94085 11.5747 7.05806 11.6919C7.17527 11.8092 7.33424 11.875 7.5 11.875ZM4.375 4.0625C4.29212 4.0625 4.21263 4.02958 4.15403 3.97097C4.09542 3.91237 4.0625 3.83288 4.0625 3.75C4.0625 3.66712 4.09542 3.58763 4.15403 3.52903C4.21263 3.47042 4.29212 3.4375 4.375 3.4375C4.45788 3.4375 4.53737 3.47042 4.59597 3.52903C4.65458 3.58763 4.6875 3.66712 4.6875 3.75C4.6875 3.83288 4.65458 3.91237 4.59597 3.97097C4.53737 4.02958 4.45788 4.0625 4.375 4.0625C4.54076 4.0625 4.69973 3.99665 4.81694 3.87944C4.93415 3.76223 5 3.60326 5 3.4375C5 3.27174 4.93415 3.11277 4.81694 2.99556C4.69973 2.87835 4.54076 2.8125 4.375 2.8125C4.12636 2.8125 3.8879 2.91127 3.71209 3.08709C3.53627 3.2629 3.4375 3.50136 3.4375 3.75C3.4375 3.99864 3.53627 4.2371 3.71209 4.41291C3.8879 4.58873 4.12636 4.6875 4.375 4.6875C4.62364 4.6875 4.8621 4.58873 5.03791 4.41291C5.21373 4.2371 5.3125 3.99864 5.3125 3.75C5.3125 3.50136 5.21373 3.2629 5.03791 3.08709C4.8621 2.91127 4.62364 2.8125 4.375 2.8125C4.20924 2.8125 4.05027 2.87835 3.93306 2.99556C3.81585 3.11277 3.75 3.27174 3.75 3.4375C3.75 3.60326 3.81585 3.76223 3.93306 3.87944C4.05027 3.99665 4.20924 4.0625 4.375 4.0625ZM6.875 4.0625C6.79212 4.0625 6.71263 4.02958 6.65403 3.97097C6.59542 3.91237 6.5625 3.83288 6.5625 3.75C6.5625 3.66712 6.59542 3.58763 6.65403 3.52903C6.71263 3.47042 6.79212 3.4375 6.875 3.4375C6.95788 3.4375 7.03737 3.47042 7.09597 3.52903C7.15458 3.58763 7.1875 3.66712 7.1875 3.75C7.1875 3.83288 7.15458 3.91237 7.09597 3.97097C7.03737 4.02958 6.95788 4.0625 6.875 4.0625C7.04076 4.0625 7.19973 3.99665 7.31694 3.87944C7.43415 3.76223 7.5 3.60326 7.5 3.4375C7.5 3.27174 7.43415 3.11277 7.31694 2.99556C7.19973 2.87835 7.04076 2.8125 6.875 2.8125C6.62636 2.8125 6.3879 2.91127 6.21209 3.08709C6.03627 3.2629 5.9375 3.50136 5.9375 3.75C5.9375 3.99864 6.03627 4.2371 6.21209 4.41291C6.3879 4.58873 6.62636 4.6875 6.875 4.6875C7.12364 4.6875 7.3621 4.58873 7.53791 4.41291C7.71373 4.2371 7.8125 3.99864 7.8125 3.75C7.8125 3.50136 7.71373 3.2629 7.53791 3.08709C7.3621 2.91127 7.12364 2.8125 6.875 2.8125C6.70924 2.8125 6.55027 2.87835 6.43306 2.99556C6.31585 3.11277 6.25 3.27174 6.25 3.4375C6.25 3.60326 6.31585 3.76223 6.43306 3.87944C6.55027 3.99665 6.70924 4.0625 6.875 4.0625ZM1.875 6.875H18.125C18.2908 6.875 18.4497 6.80915 18.5669 6.69194C18.6842 6.57473 18.75 6.41576 18.75 6.25C18.75 6.08424 18.6842 5.92527 18.5669 5.80806C18.4497 5.69085 18.2908 5.625 18.125 5.625H1.875C1.70924 5.625 1.55027 5.69085 1.43306 5.80806C1.31585 5.92527 1.25 6.08424 1.25 6.25C1.25 6.41576 1.31585 6.57473 1.43306 6.69194C1.55027 6.80915 1.70924 6.875 1.875 6.875ZM11.25 4.375H15.625C15.7908 4.375 15.9497 4.30915 16.0669 4.19194C16.1842 4.07473 16.25 3.91576 16.25 3.75C16.25 3.58424 16.1842 3.42527 16.0669 3.30806C15.9497 3.19085 15.7908 3.125 15.625 3.125H11.25C11.0842 3.125 10.9253 3.19085 10.8081 3.30806C10.6908 3.42527 10.625 3.58424 10.625 3.75C10.625 3.91576 10.6908 4.07473 10.8081 4.19194C10.9253 4.30915 11.0842 4.375 11.25 4.375Z" fill="black" fill-opacity="0.6"/>
</svg>
