<svg width="20" height="20" viewBox="0 0 20 20" fill="none" xmlns="http://www.w3.org/2000/svg">
<path d="M10.6251 12.5H19.3751L18.7585 11.7725L18.2051 15.0942C18.0349 16.1158 17.5077 17.0439 16.7174 17.7133C15.9271 18.3827 14.925 18.7501 13.8893 18.75H6.11096C5.07511 18.7503 4.07277 18.383 3.28231 17.7136C2.49186 17.0441 1.96457 16.1159 1.7943 15.0942L1.2418 11.7725L0.625129 12.5H4.37513C4.54089 12.5 4.69986 12.4342 4.81707 12.3169C4.93428 12.1997 5.00013 12.0408 5.00013 11.875C5.00013 11.7092 4.93428 11.5503 4.81707 11.4331C4.69986 11.3158 4.54089 11.25 4.37513 11.25H0.625129C0.534369 11.25 0.444694 11.2697 0.362338 11.3079C0.279983 11.346 0.206922 11.4016 0.148236 11.4709C0.0895499 11.5401 0.0466466 11.6213 0.0225088 11.7088C-0.00162906 11.7963 -0.00642229 11.888 0.00846232 11.9775L0.561796 15.2992C0.780617 16.6129 1.45851 17.8064 2.47482 18.6673C3.49114 19.5281 4.77992 20.0003 6.1118 20H13.8893C15.2209 20.0002 16.5094 19.5279 17.5255 18.6673C18.5416 17.8067 19.2195 16.6135 19.4385 15.3L19.9918 11.9775C20.0067 11.888 20.0019 11.7963 19.9777 11.7088C19.9536 11.6213 19.9107 11.5401 19.852 11.4709C19.7933 11.4016 19.7203 11.346 19.6379 11.3079C19.5556 11.2697 19.4659 11.25 19.3751 11.25H10.6251C10.4594 11.25 10.3004 11.3158 10.1832 11.4331C10.066 11.5503 10.0001 11.7092 10.0001 11.875C10.0001 12.0408 10.066 12.1997 10.1832 12.3169C10.3004 12.4342 10.4594 12.5 10.6251 12.5ZM10.0001 16.25H5.00013V11.875C5.00013 11.7092 5.06598 11.5503 5.18319 11.4331C5.3004 11.3158 5.45937 11.25 5.62513 11.25H9.37513C9.54089 11.25 9.69986 11.3158 9.81707 11.4331C9.93428 11.5503 10.0001 11.7092 10.0001 11.875V16.25ZM10.0001 17.5C10.3316 17.5 10.6496 17.3683 10.884 17.1339C11.1184 16.8995 11.2501 16.5815 11.2501 16.25V11.875C11.2501 11.3777 11.0526 10.9008 10.701 10.5492C10.3493 10.1975 9.87241 10 9.37513 10H5.62513C5.12785 10 4.65093 10.1975 4.2993 10.5492C3.94767 10.9008 3.75013 11.3777 3.75013 11.875V16.25C3.75013 16.5815 3.88182 16.8995 4.11625 17.1339C4.35067 17.3683 4.66861 17.5 5.00013 17.5H10.0001ZM13.7501 3.125C13.7501 2.62772 13.9477 2.15081 14.2993 1.79917C14.6509 1.44754 15.1278 1.25 15.6251 1.25C16.1224 1.25 16.5993 1.44754 16.951 1.79917C17.3026 2.15081 17.5001 2.62772 17.5001 3.125V11.875C17.5001 12.0408 17.566 12.1997 17.6832 12.3169C17.8004 12.4342 17.9594 12.5 18.1251 12.5C18.2909 12.5 18.4499 12.4342 18.5671 12.3169C18.6843 12.1997 18.7501 12.0408 18.7501 11.875V3.125C18.7501 2.2962 18.4209 1.50134 17.8348 0.915291C17.2488 0.32924 16.4539 0 15.6251 0C14.7963 0 14.0015 0.32924 13.4154 0.915291C12.8294 1.50134 12.5001 2.2962 12.5001 3.125C12.5001 3.29076 12.566 3.44973 12.6832 3.56694C12.8004 3.68415 12.9594 3.75 13.1251 3.75C13.2909 3.75 13.4499 3.68415 13.5671 3.56694C13.6843 3.44973 13.7501 3.29076 13.7501 3.125ZM11.2501 5.625C11.2501 5.12772 11.4477 4.65081 11.7993 4.29917C12.1509 3.94754 12.6278 3.75 13.1251 3.75C13.6224 3.75 14.0993 3.94754 14.451 4.29917C14.8026 4.65081 15.0001 5.12772 15.0001 5.625L15.6251 5H10.6251L11.2501 5.625ZM10.0001 5.625C10.0001 5.97 10.2801 6.25 10.6251 6.25H15.6251C15.7909 6.25 15.9499 6.18415 16.0671 6.06694C16.1843 5.94973 16.2501 5.79076 16.2501 5.625C16.2501 4.7962 15.9209 4.00134 15.3348 3.41529C14.7488 2.82924 13.9539 2.5 13.1251 2.5C12.2963 2.5 11.5015 2.82924 10.9154 3.41529C10.3294 4.00134 10.0001 4.7962 10.0001 5.625Z" fill="black" fill-opacity="0.6"/>
</svg>
