<svg width="20" height="18" viewBox="0 0 20 18" fill="none" xmlns="http://www.w3.org/2000/svg">
<path d="M2.29167 9H17.7083C18.2833 9 18.75 9.46667 18.75 10.0417V14L19.375 13.375H0.625L1.25 14V10.0417C1.25 9.46667 1.71667 9 2.29167 9ZM2.29167 7.75C1.68388 7.75 1.10098 7.99144 0.671214 8.42121C0.241443 8.85098 0 9.43388 0 10.0417L0 14C0 14.345 0.28 14.625 0.625 14.625H19.375C19.5408 14.625 19.6997 14.5592 19.8169 14.4419C19.9342 14.3247 20 14.1658 20 14V10.0417C20 9.43388 19.7586 8.85098 19.3288 8.42121C18.899 7.99144 18.3161 7.75 17.7083 7.75H2.29167ZM0 14V16.5C0 16.6658 0.065848 16.8247 0.183058 16.9419C0.300269 17.0592 0.45924 17.125 0.625 17.125C0.79076 17.125 0.949731 17.0592 1.06694 16.9419C1.18415 16.8247 1.25 16.6658 1.25 16.5V14C1.25 13.8342 1.18415 13.6753 1.06694 13.5581C0.949731 13.4408 0.79076 13.375 0.625 13.375C0.45924 13.375 0.300269 13.4408 0.183058 13.5581C0.065848 13.6753 0 13.8342 0 14H0ZM18.75 14V16.5C18.75 16.6658 18.8158 16.8247 18.9331 16.9419C19.0503 17.0592 19.2092 17.125 19.375 17.125C19.5408 17.125 19.6997 17.0592 19.8169 16.9419C19.9342 16.8247 20 16.6658 20 16.5V14C20 13.8342 19.9342 13.6753 19.8169 13.5581C19.6997 13.4408 19.5408 13.375 19.375 13.375C19.2092 13.375 19.0503 13.4408 18.9331 13.5581C18.8158 13.6753 18.75 13.8342 18.75 14ZM18.125 8.375V2.75C18.125 2.25272 17.9275 1.77581 17.5758 1.42417C17.2242 1.07254 16.7473 0.875 16.25 0.875H3.75C3.25272 0.875 2.77581 1.07254 2.42417 1.42417C2.07254 1.77581 1.875 2.25272 1.875 2.75V8.375C1.875 8.54076 1.94085 8.69973 2.05806 8.81694C2.17527 8.93415 2.33424 9 2.5 9C2.66576 9 2.82473 8.93415 2.94194 8.81694C3.05915 8.69973 3.125 8.54076 3.125 8.375V2.75C3.125 2.58424 3.19085 2.42527 3.30806 2.30806C3.42527 2.19085 3.58424 2.125 3.75 2.125H16.25C16.4158 2.125 16.5747 2.19085 16.6919 2.30806C16.8092 2.42527 16.875 2.58424 16.875 2.75V8.375C16.875 8.54076 16.9408 8.69973 17.0581 8.81694C17.1753 8.93415 17.3342 9 17.5 9C17.6658 9 17.8247 8.93415 17.9419 8.81694C18.0592 8.69973 18.125 8.54076 18.125 8.375ZM7.08333 5.875H12.9167C12.9719 5.875 13.0249 5.89695 13.064 5.93602C13.1031 5.97509 13.125 6.02808 13.125 6.08333V8.375L13.75 7.75H6.25L6.875 8.375V6.08333C6.875 6.02808 6.89695 5.97509 6.93602 5.93602C6.97509 5.89695 7.02808 5.875 7.08333 5.875ZM7.08333 4.625C6.69656 4.625 6.32563 4.77865 6.05214 5.05214C5.77865 5.32563 5.625 5.69656 5.625 6.08333V8.375C5.625 8.72 5.905 9 6.25 9H13.75C13.9158 9 14.0747 8.93415 14.1919 8.81694C14.3092 8.69973 14.375 8.54076 14.375 8.375V6.08333C14.375 5.69656 14.2214 5.32563 13.9479 5.05214C13.6744 4.77865 13.3034 4.625 12.9167 4.625H7.08333Z" fill="black" fill-opacity="0.6"/>
</svg>
