<svg width="20" height="20" viewBox="0 0 20 20" fill="none" xmlns="http://www.w3.org/2000/svg">
<path d="M3.75 16.8442V18.0942C3.75 18.5915 3.94754 19.0684 4.29917 19.4201C4.65081 19.7717 5.12772 19.9692 5.625 19.9692C6.12228 19.9692 6.59919 19.7717 6.95082 19.4201C7.30246 19.0684 7.5 18.5915 7.5 18.0942V16.8442C7.5 16.6785 7.43415 16.5195 7.31694 16.4023C7.19973 16.2851 7.04076 16.2192 6.875 16.2192C6.70924 16.2192 6.55027 16.2851 6.43306 16.4023C6.31585 16.5195 6.25 16.6785 6.25 16.8442V18.0942C6.25 18.26 6.18415 18.419 6.06694 18.5362C5.94973 18.6534 5.79076 18.7192 5.625 18.7192C5.45924 18.7192 5.30027 18.6534 5.18306 18.5362C5.06585 18.419 5 18.26 5 18.0942V16.8442C5 16.6785 4.93415 16.5195 4.81694 16.4023C4.69973 16.2851 4.54076 16.2192 4.375 16.2192C4.20924 16.2192 4.05027 16.2851 3.93306 16.4023C3.81585 16.5195 3.75 16.6785 3.75 16.8442ZM15 16.8442V18.0942C15 18.26 14.9342 18.419 14.8169 18.5362C14.6997 18.6534 14.5408 18.7192 14.375 18.7192C14.2092 18.7192 14.0503 18.6534 13.9331 18.5362C13.8158 18.419 13.75 18.26 13.75 18.0942V16.8442C13.75 16.6785 13.6842 16.5195 13.5669 16.4023C13.4497 16.2851 13.2908 16.2192 13.125 16.2192C12.9592 16.2192 12.8003 16.2851 12.6831 16.4023C12.5658 16.5195 12.5 16.6785 12.5 16.8442V18.0942C12.5 18.5915 12.6975 19.0684 13.0492 19.4201C13.4008 19.7717 13.8777 19.9692 14.375 19.9692C14.8723 19.9692 15.3492 19.7717 15.7008 19.4201C16.0525 19.0684 16.25 18.5915 16.25 18.0942V16.8442C16.25 16.6785 16.1842 16.5195 16.0669 16.4023C15.9497 16.2851 15.7908 16.2192 15.625 16.2192C15.4592 16.2192 15.3003 16.2851 15.1831 16.4023C15.0658 16.5195 15 16.6785 15 16.8442ZM16.25 15.5942C16.25 15.76 16.1842 15.919 16.0669 16.0362C15.9497 16.1534 15.7908 16.2192 15.625 16.2192H4.375C4.20924 16.2192 4.05027 16.1534 3.93306 16.0362C3.81585 15.919 3.75 15.76 3.75 15.5942V4.34424C3.75 3.51544 4.07924 2.72058 4.66529 2.13453C5.25134 1.54848 6.0462 1.21924 6.875 1.21924H13.125C13.9538 1.21924 14.7487 1.54848 15.3347 2.13453C15.9208 2.72058 16.25 3.51544 16.25 4.34424V15.5942ZM17.5 15.5942V4.34424C17.5 1.92757 15.5417 -0.0307617 13.125 -0.0307617H6.875C5.71468 -0.0307617 4.60188 0.430174 3.78141 1.25065C2.96094 2.07112 2.5 3.18392 2.5 4.34424V15.5942C2.5 16.0915 2.69754 16.5684 3.04917 16.9201C3.40081 17.2717 3.87772 17.4692 4.375 17.4692H15.625C16.1223 17.4692 16.5992 17.2717 16.9508 16.9201C17.3025 16.5684 17.5 16.0915 17.5 15.5942ZM8.125 3.71924H11.875C12.0408 3.71924 12.1997 3.65339 12.3169 3.53618C12.4342 3.41897 12.5 3.26 12.5 3.09424C12.5 2.92848 12.4342 2.76951 12.3169 2.6523C12.1997 2.53509 12.0408 2.46924 11.875 2.46924H8.125C7.95924 2.46924 7.80027 2.53509 7.68306 2.6523C7.56585 2.76951 7.5 2.92848 7.5 3.09424C7.5 3.26 7.56585 3.41897 7.68306 3.53618C7.80027 3.65339 7.95924 3.71924 8.125 3.71924ZM3.125 6.21924H16.875L16.25 5.59424V11.8442L16.875 11.2192H3.125L3.75 11.8442V5.59424L3.125 6.21924ZM3.125 4.96924C2.95924 4.96924 2.80027 5.03509 2.68306 5.1523C2.56585 5.26951 2.5 5.42848 2.5 5.59424V11.8442C2.5 12.1892 2.78 12.4692 3.125 12.4692H16.875C17.0408 12.4692 17.1997 12.4034 17.3169 12.2862C17.4342 12.169 17.5 12.01 17.5 11.8442V5.59424C17.5 5.42848 17.4342 5.26951 17.3169 5.1523C17.1997 5.03509 17.0408 4.96924 16.875 4.96924H3.125ZM5.625 14.9692H8.125C8.29076 14.9692 8.44973 14.9034 8.56694 14.7862C8.68415 14.669 8.75 14.51 8.75 14.3442C8.75 14.1785 8.68415 14.0195 8.56694 13.9023C8.44973 13.7851 8.29076 13.7192 8.125 13.7192H5.625C5.45924 13.7192 5.30027 13.7851 5.18306 13.9023C5.06585 14.0195 5 14.1785 5 14.3442C5 14.51 5.06585 14.669 5.18306 14.7862C5.30027 14.9034 5.45924 14.9692 5.625 14.9692ZM11.875 14.9692H14.375C14.5408 14.9692 14.6997 14.9034 14.8169 14.7862C14.9342 14.669 15 14.51 15 14.3442C15 14.1785 14.9342 14.0195 14.8169 13.9023C14.6997 13.7851 14.5408 13.7192 14.375 13.7192H11.875C11.7092 13.7192 11.5503 13.7851 11.4331 13.9023C11.3158 14.0195 11.25 14.1785 11.25 14.3442C11.25 14.51 11.3158 14.669 11.4331 14.7862C11.5503 14.9034 11.7092 14.9692 11.875 14.9692ZM3.125 6.21924H1.875C1.37772 6.21924 0.900805 6.41678 0.549175 6.76841C0.197544 7.12004 0 7.59696 0 8.09424L0 11.8442C0 12.01 0.065848 12.169 0.183058 12.2862C0.300269 12.4034 0.45924 12.4692 0.625 12.4692C0.79076 12.4692 0.949731 12.4034 1.06694 12.2862C1.18415 12.169 1.25 12.01 1.25 11.8442V8.09424C1.25 7.92848 1.31585 7.76951 1.43306 7.6523C1.55027 7.53509 1.70924 7.46924 1.875 7.46924H3.125C3.29076 7.46924 3.44973 7.40339 3.56694 7.28618C3.68415 7.16897 3.75 7.01 3.75 6.84424C3.75 6.67848 3.68415 6.51951 3.56694 6.4023C3.44973 6.28509 3.29076 6.21924 3.125 6.21924ZM16.875 7.46924H18.125C18.2908 7.46924 18.4497 7.53509 18.5669 7.6523C18.6842 7.76951 18.75 7.92848 18.75 8.09424V11.8442C18.75 12.01 18.8158 12.169 18.9331 12.2862C19.0503 12.4034 19.2092 12.4692 19.375 12.4692C19.5408 12.4692 19.6997 12.4034 19.8169 12.2862C19.9342 12.169 20 12.01 20 11.8442V8.09424C20 7.59696 19.8025 7.12004 19.4508 6.76841C19.0992 6.41678 18.6223 6.21924 18.125 6.21924H16.875C16.7092 6.21924 16.5503 6.28509 16.4331 6.4023C16.3158 6.51951 16.25 6.67848 16.25 6.84424C16.25 7.01 16.3158 7.16897 16.4331 7.28618C16.5503 7.40339 16.7092 7.46924 16.875 7.46924Z" fill="black" fill-opacity="0.6"/>
</svg>
