<svg width="20" height="20" viewBox="0 0 20 20" fill="none" xmlns="http://www.w3.org/2000/svg">
<path d="M7.5 13.75C7.5 14.0815 7.3683 14.3995 7.13388 14.6339C6.89946 14.8683 6.58152 15 6.25 15C5.91848 15 5.60054 14.8683 5.36612 14.6339C5.1317 14.3995 5 14.0815 5 13.75C5 13.4185 5.1317 13.1005 5.36612 12.8661C5.60054 12.6317 5.91848 12.5 6.25 12.5C6.58152 12.5 6.89946 12.6317 7.13388 12.8661C7.3683 13.1005 7.5 13.4185 7.5 13.75ZM8.75 13.75C8.75 13.087 8.48661 12.4511 8.01777 11.9822C7.54893 11.5134 6.91304 11.25 6.25 11.25C5.58696 11.25 4.95107 11.5134 4.48223 11.9822C4.01339 12.4511 3.75 13.087 3.75 13.75C3.75 14.413 4.01339 15.0489 4.48223 15.5178C4.95107 15.9866 5.58696 16.25 6.25 16.25C6.91304 16.25 7.54893 15.9866 8.01777 15.5178C8.48661 15.0489 8.75 14.413 8.75 13.75ZM10 12.5H17.0833C17.6583 12.5 18.125 12.9667 18.125 13.5417V15.625L18.75 15H10L10.625 15.625V11.875L10 12.5ZM10 11.25C9.83424 11.25 9.67527 11.3158 9.55806 11.4331C9.44085 11.5503 9.375 11.7092 9.375 11.875V15.625C9.375 15.97 9.655 16.25 10 16.25H18.75C18.9158 16.25 19.0747 16.1842 19.1919 16.0669C19.3092 15.9497 19.375 15.7908 19.375 15.625V13.5417C19.375 12.9339 19.1336 12.351 18.7038 11.9212C18.274 11.4914 17.6911 11.25 17.0833 11.25H10ZM1.25 16.25H18.75L18.125 15.625V18.125L18.75 17.5H1.25L1.875 18.125V15.625L1.25 16.25ZM1.25 15C1.08424 15 0.925269 15.0658 0.808058 15.1831C0.690848 15.3003 0.625 15.4592 0.625 15.625V18.125C0.625 18.47 0.905 18.75 1.25 18.75H18.75C18.9158 18.75 19.0747 18.6842 19.1919 18.5669C19.3092 18.4497 19.375 18.2908 19.375 18.125V15.625C19.375 15.4592 19.3092 15.3003 19.1919 15.1831C19.0747 15.0658 18.9158 15 18.75 15H1.25ZM1.875 19.375V11.875C1.875 11.7092 1.80915 11.5503 1.69194 11.4331C1.57473 11.3158 1.41576 11.25 1.25 11.25C1.08424 11.25 0.925269 11.3158 0.808058 11.4331C0.690848 11.5503 0.625 11.7092 0.625 11.875V19.375C0.625 19.5408 0.690848 19.6997 0.808058 19.8169C0.925269 19.9342 1.08424 20 1.25 20C1.41576 20 1.57473 19.9342 1.69194 19.8169C1.80915 19.6997 1.875 19.5408 1.875 19.375ZM19.375 19.375V18.125C19.375 17.9592 19.3092 17.8003 19.1919 17.6831C19.0747 17.5658 18.9158 17.5 18.75 17.5C18.5842 17.5 18.4253 17.5658 18.3081 17.6831C18.1908 17.8003 18.125 17.9592 18.125 18.125V19.375C18.125 19.5408 18.1908 19.6997 18.3081 19.8169C18.4253 19.9342 18.5842 20 18.75 20C18.9158 20 19.0747 19.9342 19.1919 19.8169C19.3092 19.6997 19.375 19.5408 19.375 19.375ZM16.1667 5.00083L16.1692 5H12.5833V5.00083L13.0517 1.25083V1.25H15.6983L16.1667 5V5.00083ZM17.4083 4.845L16.9383 1.095C16.9006 0.792735 16.7537 0.514665 16.5254 0.313033C16.2971 0.111402 16.0029 8.59696e-05 15.6983 0L13.0517 0C12.7471 8.59696e-05 12.4529 0.111402 12.2246 0.313033C11.9963 0.514665 11.8494 0.792735 11.8117 1.095L11.3425 4.845C11.3204 5.02107 11.336 5.19984 11.3884 5.3694C11.4407 5.53897 11.5286 5.69542 11.6462 5.82836C11.7637 5.96129 11.9083 6.06766 12.0701 6.14036C12.232 6.21306 12.4075 6.25044 12.585 6.25H16.1667C16.3441 6.25034 16.5196 6.21285 16.6815 6.14005C16.8433 6.06724 16.9878 5.96079 17.1053 5.82777C17.2228 5.69475 17.3106 5.53823 17.3628 5.36863C17.4151 5.19903 17.4306 5.02024 17.4083 4.84417V4.845ZM13.75 5.625V9.375C13.75 9.54076 13.8158 9.69973 13.9331 9.81694C14.0503 9.93415 14.2092 10 14.375 10C14.5408 10 14.6997 9.93415 14.8169 9.81694C14.9342 9.69973 15 9.54076 15 9.375V5.625C15 5.45924 14.9342 5.30027 14.8169 5.18306C14.6997 5.06585 14.5408 5 14.375 5C14.2092 5 14.0503 5.06585 13.9331 5.18306C13.8158 5.30027 13.75 5.45924 13.75 5.625Z" fill="black" fill-opacity="0.6"/>
</svg>
