<svg width="20" height="20" viewBox="0 0 20 20" fill="none" xmlns="http://www.w3.org/2000/svg">
<path d="M11.875 13.125H11.25C11.0842 13.125 10.9253 13.0592 10.8081 12.9419C10.6908 12.8247 10.625 12.6658 10.625 12.5V9.375C10.625 9.04348 10.4933 8.72554 10.2589 8.49112C10.0245 8.2567 9.70652 8.125 9.375 8.125H8.75C8.58424 8.125 8.42527 8.19085 8.30806 8.30806C8.19085 8.42527 8.125 8.58424 8.125 8.75C8.125 8.91576 8.19085 9.07473 8.30806 9.19194C8.42527 9.30915 8.58424 9.375 8.75 9.375H9.375V12.5C9.375 12.9973 9.57254 13.4742 9.92417 13.8258C10.2758 14.1775 10.7527 14.375 11.25 14.375H11.875C12.0408 14.375 12.1997 14.3092 12.3169 14.1919C12.4342 14.0747 12.5 13.9158 12.5 13.75C12.5 13.5842 12.4342 13.4253 12.3169 13.3081C12.1997 13.1908 12.0408 13.125 11.875 13.125ZM9.6875 5C9.43886 5 9.2004 5.09877 9.02459 5.27459C8.84877 5.4504 8.75 5.68886 8.75 5.9375C8.75 6.18614 8.84877 6.4246 9.02459 6.60041C9.2004 6.77623 9.43886 6.875 9.6875 6.875C9.93614 6.875 10.1746 6.77623 10.3504 6.60041C10.5262 6.4246 10.625 6.18614 10.625 5.9375C10.625 5.68886 10.5262 5.4504 10.3504 5.27459C10.1746 5.09877 9.93614 5 9.6875 5C9.52174 5 9.36277 5.06585 9.24556 5.18306C9.12835 5.30027 9.0625 5.45924 9.0625 5.625C9.0625 5.79076 9.12835 5.94973 9.24556 6.06694C9.36277 6.18415 9.52174 6.25 9.6875 6.25C9.60462 6.25 9.52513 6.21708 9.46653 6.15847C9.40792 6.09987 9.375 6.02038 9.375 5.9375C9.375 5.85462 9.40792 5.77513 9.46653 5.71653C9.52513 5.65792 9.60462 5.625 9.6875 5.625C9.77038 5.625 9.84987 5.65792 9.90847 5.71653C9.96708 5.77513 10 5.85462 10 5.9375C10 6.02038 9.96708 6.09987 9.90847 6.15847C9.84987 6.21708 9.77038 6.25 9.6875 6.25C9.85326 6.25 10.0122 6.18415 10.1294 6.06694C10.2467 5.94973 10.3125 5.79076 10.3125 5.625C10.3125 5.45924 10.2467 5.30027 10.1294 5.18306C10.0122 5.06585 9.85326 5 9.6875 5ZM18.75 10C18.75 14.8325 14.8325 18.75 10 18.75C5.1675 18.75 1.25 14.8325 1.25 10C1.25 5.1675 5.1675 1.25 10 1.25C14.8325 1.25 18.75 5.1675 18.75 10ZM20 10C20 4.4775 15.5225 0 10 0C4.4775 0 0 4.4775 0 10C0 15.5225 4.4775 20 10 20C15.5225 20 20 15.5225 20 10Z" fill="black" fill-opacity="0.6"/>
</svg>
