<svg width="20" height="18" viewBox="0 0 20 18" fill="none" xmlns="http://www.w3.org/2000/svg">
<path d="M18.75 7.64575V13.0624C18.75 13.1177 18.7281 13.1707 18.689 13.2097C18.6499 13.2488 18.5969 13.2708 18.5417 13.2708H1.45833C1.40308 13.2708 1.35009 13.2488 1.31102 13.2097C1.27195 13.1707 1.25 13.1177 1.25 13.0624V2.22909C1.25 2.17383 1.27195 2.12084 1.31102 2.08177C1.35009 2.0427 1.40308 2.02075 1.45833 2.02075H18.5417C18.5969 2.02075 18.6499 2.0427 18.689 2.08177C18.7281 2.12084 18.75 2.17383 18.75 2.22909V7.64575ZM20 7.64575V2.22909C20 1.84231 19.8464 1.47138 19.5729 1.19789C19.2994 0.924397 18.9284 0.770752 18.5417 0.770752H1.45833C1.07156 0.770752 0.700626 0.924397 0.427136 1.19789C0.153645 1.47138 0 1.84231 0 2.22909L0 13.0624C0 13.8674 0.653333 14.5208 1.45833 14.5208H18.5417C18.9284 14.5208 19.2994 14.3671 19.5729 14.0936C19.8464 13.8201 20 13.4492 20 13.0624V7.64575ZM6.25 17.6458H13.75C13.9158 17.6458 14.0747 17.5799 14.1919 17.4627C14.3092 17.3455 14.375 17.1865 14.375 17.0208C14.375 16.855 14.3092 16.696 14.1919 16.5788C14.0747 16.4616 13.9158 16.3958 13.75 16.3958H6.25C6.08424 16.3958 5.92527 16.4616 5.80806 16.5788C5.69085 16.696 5.625 16.855 5.625 17.0208C5.625 17.1865 5.69085 17.3455 5.80806 17.4627C5.92527 17.5799 6.08424 17.6458 6.25 17.6458ZM9.375 13.8958V17.0208C9.375 17.1865 9.44085 17.3455 9.55806 17.4627C9.67527 17.5799 9.83424 17.6458 10 17.6458C10.1658 17.6458 10.3247 17.5799 10.4419 17.4627C10.5592 17.3455 10.625 17.1865 10.625 17.0208V13.8958C10.625 13.73 10.5592 13.571 10.4419 13.4538C10.3247 13.3366 10.1658 13.2708 10 13.2708C9.83424 13.2708 9.67527 13.3366 9.55806 13.4538C9.44085 13.571 9.375 13.73 9.375 13.8958Z" fill="black" fill-opacity="0.6"/>
</svg>
