<svg width="24" height="24" viewBox="0 0 24 24" fill="none" xmlns="http://www.w3.org/2000/svg">
<path d="M12 24C5.3736 24 0 18.6264 0 12C0 5.3736 5.3736 0 12 0C18.6264 0 24 5.3736 24 12C24 18.6264 18.6264 24 12 24Z" fill="#3C3C3B"/>
<path d="M15.12 24V14.7048H18.24L18.708 11.0832H15.12V8.76961C15.12 7.7208 15.4104 7.0056 16.9152 7.0056H18.8328V3.768C18.5016 3.7248 17.3616 3.6264 16.0368 3.6264C13.272 3.6264 11.3784 5.3136 11.3784 8.41441V11.0856H8.25119V14.7072H11.3784V24H15.12Z" fill="white"/>
</svg>
