<svg width="36" height="40" viewBox="0 0 36 40" fill="none" xmlns="http://www.w3.org/2000/svg">
<path d="M8.35725 0.714294L5.14296 3.92858L8.35725 7.14287L11.5715 3.92858L8.35725 0.714294ZM11.5715 3.92858L14.7858 7.14287L18.0001 3.92858L14.7858 0.714294L11.5715 3.92858ZM18.0001 3.92858L21.2144 7.14287L24.4287 3.92858L21.2144 0.714294L18.0001 3.92858ZM24.4287 3.92858L27.643 7.14287L30.8572 3.92858L27.643 0.714294L24.4287 3.92858ZM27.643 7.14287H0.321533V39.2857H35.6787V7.14287H27.643ZM3.53582 10.3572H32.4644V36.0714H22.8215V28.0357H13.1787V36.0714H3.53582V10.3572ZM6.7501 13.5714V16.7857H9.96439V13.5714H6.7501ZM13.1787 13.5714V16.7857H16.393V13.5714H13.1787ZM19.6072 13.5714V16.7857H22.8215V13.5714H19.6072ZM26.0358 13.5714V16.7857H29.2501V13.5714H26.0358ZM6.7501 18.3929V21.6072H9.96439V18.3929H6.7501ZM13.1787 18.3929V21.6072H16.393V18.3929H13.1787ZM19.6072 18.3929V21.6072H22.8215V18.3929H19.6072ZM26.0358 18.3929V21.6072H29.2501V18.3929H26.0358ZM6.7501 23.2143V26.4286H9.96439V23.2143H6.7501ZM13.1787 23.2143V26.4286H16.393V23.2143H13.1787ZM19.6072 23.2143V26.4286H22.8215V23.2143H19.6072ZM26.0358 23.2143V26.4286H29.2501V23.2143H26.0358ZM6.7501 28.0357V31.25H9.96439V28.0357H6.7501ZM26.0358 28.0357V31.25H29.2501V28.0357H26.0358ZM16.393 31.25H19.6072V36.0714H16.393V31.25Z" fill="#F2A900"/>
</svg>
