<svg width="20" height="20" viewBox="0 0 20 20" fill="none" xmlns="http://www.w3.org/2000/svg">
<path d="M19.6013 14.1547C19.073 13.2845 17.6791 12.9004 16.8951 12.7489C15.4643 12.4724 13.6204 12.4934 12.7267 13.1637C12.4325 13.3845 12.286 13.8408 12.2517 14.6432C12.2472 14.7489 12.2452 14.8522 12.2447 14.95C10.7261 14.3635 9.32434 13.4885 8.12794 12.3803L7.60255 11.8578C6.48958 10.6698 5.6105 9.27793 5.02097 7.77041C5.11954 7.76993 5.22361 7.76793 5.3302 7.76346C6.13546 7.72945 6.59337 7.584 6.81498 7.29191C7.4862 6.40717 7.51051 4.58034 7.23684 3.1624C7.08514 2.37606 6.69906 0.978108 5.81868 0.449753C4.94283 -0.0759072 3.58912 0.0508999 3.04773 0.129905C1.93082 0.292712 1.00162 0.687362 0.562022 1.18543C0.178959 1.61953 0.0443911 2.85834 0.00434956 3.37074C0.00327172 3.38421 0.00289434 3.39806 0.0031099 3.41159C0.0690196 7.58535 1.67456 11.5709 4.52388 14.6326C4.5277 14.6367 4.53158 14.6424 4.53552 14.6463L5.3343 15.444C5.33823 15.4479 5.34222 15.4586 5.34637 15.4622C8.42483 18.2949 12.4309 19.8623 16.6268 19.9701C16.629 19.9701 16.6313 19.9701 16.6335 19.9701C16.6446 19.9701 16.6557 19.9562 16.6668 19.9553C17.1815 19.9155 18.4256 19.7684 18.8614 19.3882C19.3627 18.9509 19.7598 18.026 19.9237 16.9142C20.0032 16.3752 20.1308 15.0272 19.6013 14.1547ZM19.0707 16.7884C18.9418 17.6621 18.6299 18.4458 18.2948 18.7381C18.1446 18.8619 17.3653 19.0209 16.6201 19.0806C12.6462 19.0136 8.85306 17.501 5.93638 14.8198L5.14956 14.0373C2.45378 11.1378 0.933121 7.36752 0.865756 3.41741C0.925306 2.67829 1.08472 1.90494 1.20872 1.75577C1.50346 1.42185 2.29254 1.11133 3.17232 0.983066C4.09511 0.848498 4.93927 0.927396 5.37515 1.18904C5.79572 1.44147 6.18477 2.26019 6.39042 3.3258C6.66031 4.72429 6.55112 6.19413 6.13729 6.7587C5.97017 6.87608 5.21245 6.93897 4.50173 6.89645C4.42455 6.87699 4.34118 6.87829 4.26008 6.90534C4.18926 6.929 4.12869 6.96931 4.08115 7.0204C4.01266 7.09073 3.9676 7.18461 3.95995 7.29024C3.95338 7.38126 3.97574 7.46759 4.01902 7.54062C4.61506 9.28305 5.56857 10.8968 6.80878 12.2685C6.82344 12.292 6.84058 12.3144 6.86019 12.3353C6.98797 12.4714 7.11855 12.6051 7.25161 12.7358C7.38337 12.8685 7.51789 12.9985 7.65526 13.1258C7.67633 13.1453 7.6988 13.1623 7.7223 13.1768C9.10139 14.4095 10.7237 15.3576 12.4752 15.95C12.5481 15.9931 12.6344 16.0154 12.7254 16.0085C12.8317 16.0008 12.9261 15.955 12.9965 15.8855C13.0037 15.8788 13.0102 15.8713 13.017 15.864C13.0188 15.8619 13.0207 15.8598 13.0226 15.8577C13.0605 15.815 13.0915 15.765 13.1106 15.7073C13.1374 15.6263 13.1385 15.5432 13.1189 15.4662C13.0764 14.7614 13.1392 14.0104 13.2566 13.8446C13.829 13.4295 15.3169 13.3222 16.7317 13.5956C17.7949 13.8011 18.6122 14.1868 18.8643 14.6022C19.1267 15.0345 19.2057 15.8722 19.0707 16.7884Z" fill="white"/>
</svg>
