<svg width="24" height="24" viewBox="0 0 24 24" fill="none" xmlns="http://www.w3.org/2000/svg">
<path d="M23.5215 16.9855C22.8876 15.9413 21.2149 15.4804 20.2741 15.2986C18.5572 14.9668 16.3445 14.992 15.272 15.7964C14.919 16.0613 14.7431 16.6088 14.7021 17.5717C14.6966 17.6986 14.6942 17.8225 14.6936 17.9399C12.8713 17.2361 11.1892 16.1862 9.7535 14.8562L9.12303 14.2293C7.78746 12.8037 6.73256 11.1334 6.02514 9.3244C6.14342 9.32382 6.2683 9.32143 6.39622 9.31606C7.36252 9.27525 7.91202 9.10071 8.17794 8.75019C8.98341 7.68851 9.01258 5.49632 8.68418 3.79478C8.50213 2.85118 8.03884 1.17364 6.98239 0.539611C5.93137 -0.0911817 4.30692 0.0609868 3.65724 0.155793C2.31695 0.351162 1.20191 0.824741 0.674396 1.42242C0.21472 1.94334 0.0532389 3.42991 0.00518895 4.0448C0.00389555 4.06096 0.00344269 4.07758 0.00370137 4.09382C0.082793 9.10232 2.00945 13.885 5.42862 17.559C5.43321 17.5639 5.43787 17.5707 5.44259 17.5755L6.40113 18.5327C6.40585 18.5374 6.41064 18.5502 6.41562 18.5546C10.1098 21.9538 14.9171 23.8346 19.9522 23.964C19.9548 23.964 19.9575 23.964 19.9602 23.964C19.9735 23.964 19.9868 23.9473 20.0002 23.9463C20.6178 23.8985 22.1107 23.722 22.6336 23.2658C23.2352 22.7409 23.7117 21.6311 23.9084 20.297C24.0038 19.6501 24.157 18.0326 23.5215 16.9855ZM22.8848 20.146C22.7301 21.1944 22.3558 22.1348 21.9538 22.4857C21.7735 22.6342 20.8384 22.825 19.9441 22.8966C15.1754 22.8162 10.6236 21.0011 7.12362 17.7836L6.17944 16.8447C2.94451 13.3653 1.11971 8.84093 1.03888 4.1008C1.11034 3.21385 1.30163 2.28583 1.45044 2.10683C1.80412 1.70613 2.75102 1.3335 3.80676 1.17959C4.91411 1.0181 5.9271 1.11278 6.45015 1.42676C6.95484 1.72967 7.42169 2.71214 7.66847 3.99086C7.99234 5.66905 7.86132 7.43287 7.36472 8.11035C7.16417 8.2512 6.25491 8.32667 5.40204 8.27565C5.30943 8.2523 5.20939 8.25385 5.11206 8.28632C5.02708 8.31471 4.95439 8.36308 4.89736 8.42439C4.81516 8.50878 4.7611 8.62144 4.75191 8.74819C4.74402 8.85742 4.77086 8.96102 4.82279 9.04865C5.53804 11.1396 6.68225 13.076 8.1705 14.7222C8.1881 14.7503 8.20866 14.7771 8.2322 14.8022C8.38553 14.9656 8.54223 15.126 8.7019 15.2829C8.86002 15.4421 9.02143 15.5981 9.18628 15.7509C9.21157 15.7743 9.23853 15.7947 9.26673 15.8121C10.9216 17.2913 12.8685 18.429 14.9702 19.1399C15.0577 19.1916 15.1612 19.2183 15.2704 19.2101C15.398 19.2009 15.5113 19.1459 15.5957 19.0626C15.6044 19.0544 15.6122 19.0455 15.6203 19.0368C15.6225 19.0342 15.6248 19.0317 15.627 19.0291C15.6726 18.9779 15.7098 18.9179 15.7327 18.8486C15.7648 18.7514 15.7661 18.6517 15.7426 18.5594C15.6917 17.7135 15.767 16.8124 15.9079 16.6134C16.5948 16.1153 18.3802 15.9865 20.078 16.3146C21.3539 16.5612 22.3346 17.024 22.6371 17.5225C22.952 18.0413 23.0468 19.0466 22.8848 20.146Z" fill="#3C3C3B"/>
</svg>
