<svg width="24" height="24" viewBox="0 0 24 24" fill="none" xmlns="http://www.w3.org/2000/svg">
<path d="M11.9365 7.06878C8.97352 7.06878 6.51849 9.48148 6.51849 12.4868C6.51849 15.4921 8.93119 17.9048 11.9365 17.9048C14.9418 17.9048 17.3545 15.4497 17.3545 12.4868C17.3545 9.52381 14.8994 7.06878 11.9365 7.06878ZM11.9365 15.9577C10.0317 15.9577 8.46558 14.3915 8.46558 12.4868C8.46558 10.582 10.0317 9.01587 11.9365 9.01587C13.8412 9.01587 15.4074 10.582 15.4074 12.4868C15.4074 14.3915 13.8412 15.9577 11.9365 15.9577Z" fill="#3C3C3B"/>
<path d="M17.5661 8.16931C18.2441 8.16931 18.7936 7.61974 18.7936 6.9418C18.7936 6.26386 18.2441 5.71429 17.5661 5.71429C16.8882 5.71429 16.3386 6.26386 16.3386 6.9418C16.3386 7.61974 16.8882 8.16931 17.5661 8.16931Z" fill="#3C3C3B"/>
<path d="M20.7407 3.7672C19.6402 2.62434 18.0741 2.03175 16.2963 2.03175H7.57671C3.89417 2.03175 1.43915 4.48677 1.43915 8.16931V16.8466C1.43915 18.6667 2.03174 20.2328 3.21693 21.3757C4.35978 22.4762 5.88359 23.0265 7.61904 23.0265H16.254C18.0741 23.0265 19.5979 22.4339 20.6984 21.3757C21.8413 20.2751 22.4339 18.709 22.4339 16.8889V8.16931C22.4339 6.39153 21.8413 4.86772 20.7407 3.7672ZM20.5714 16.8889C20.5714 18.2011 20.1058 19.2593 19.3439 19.9788C18.582 20.6984 17.5238 21.0794 16.254 21.0794H7.61904C6.3492 21.0794 5.291 20.6984 4.52909 19.9788C3.76719 19.2169 3.38624 18.1587 3.38624 16.8466V8.16931C3.38624 6.89947 3.76719 5.84127 4.52909 5.07936C5.24867 4.35979 6.3492 3.97884 7.61904 3.97884H16.3386C17.6085 3.97884 18.6667 4.35979 19.4286 5.12169C20.1481 5.8836 20.5714 6.9418 20.5714 8.16931V16.8889Z" fill="#3C3C3B"/>
</svg>
