<svg width="12" height="14" viewBox="0 0 12 14" fill="none" xmlns="http://www.w3.org/2000/svg">
<path d="M9.38281 6.125C9.77344 5.50781 10 4.78125 10 4C10 1.79687 8.20312 -9.53674e-07 6 -9.53674e-07C3.79688 -9.53674e-07 2 1.79687 2 4C2 4.78125 2.22656 5.50781 2.61719 6.125C1.51563 6.44531 0 7.53125 0 11.0859C0 12.6953 1.19531 14 2.66406 14H9.33594C10.8047 14 12 12.6953 12 11.0859C12 7.53125 10.4844 6.44531 9.38281 6.125ZM6 0.999999C7.65625 0.999999 9 2.34375 9 4C9 5.65625 7.65625 7 6 7C4.34375 7 3 5.65625 3 4C3 2.34375 4.34375 0.999999 6 0.999999ZM9.33594 13H2.66406C1.75 13 1 12.1484 1 11.0859C1 8.625 1.82813 7.08594 3.375 7.00781C4.07813 7.625 4.99219 8 6 8C7.00781 8 7.92188 7.625 8.625 7.00781C10.1719 7.08594 11 8.625 11 11.0859C11 12.1484 10.25 13 9.33594 13Z" fill="#3C3C3B"/>
</svg>
