<svg width="18" height="13" viewBox="0 0 18 13" fill="none" xmlns="http://www.w3.org/2000/svg">
<path d="M1 1.3125V0.75H16.75V12H1V6.9375" stroke="#3C3C3B" stroke-miterlimit="10" stroke-linecap="round" stroke-linejoin="round"/>
<path d="M3.8125 0.75V3" stroke="#3C3C3B" stroke-miterlimit="10" stroke-linejoin="round"/>
<path d="M3.8125 5.25V12" stroke="#3C3C3B" stroke-miterlimit="10" stroke-linejoin="round"/>
<path d="M3.8125 5.25C4.43382 5.25 4.9375 4.74632 4.9375 4.125C4.9375 3.50368 4.43382 3 3.8125 3C3.19118 3 2.6875 3.50368 2.6875 4.125C2.6875 4.74632 3.19118 5.25 3.8125 5.25Z" stroke="#3C3C3B" stroke-miterlimit="10" stroke-linejoin="round"/>
<path d="M4.9375 4.6875L6.625 5.25V3L4.9375 3.5625" stroke="#3C3C3B" stroke-miterlimit="10" stroke-linejoin="round"/>
<path d="M2.6875 4.6875L1 5.25V3L2.6875 3.5625" stroke="#3C3C3B" stroke-miterlimit="10" stroke-linejoin="round"/>
<path d="M11.6875 3V4.125" stroke="#3C3C3B" stroke-miterlimit="10" stroke-linecap="round" stroke-linejoin="round"/>
<path d="M11.6875 8.625V9.75" stroke="#3C3C3B" stroke-miterlimit="10" stroke-linecap="round" stroke-linejoin="round"/>
<path d="M10.5625 8.625H12.25C12.8688 8.625 13.375 8.11875 13.375 7.5C13.375 6.88125 12.8688 6.375 12.25 6.375H11.125C10.5062 6.375 10 5.86875 10 5.25C10 4.63125 10.5062 4.125 11.125 4.125H12.8125" stroke="#3C3C3B" stroke-miterlimit="10" stroke-linecap="round" stroke-linejoin="round"/>
</svg>
