<svg width="24" height="24" viewBox="0 0 24 24" fill="none" xmlns="http://www.w3.org/2000/svg">
<path d="M23.4986 6.22336C23.2226 5.1907 22.4094 4.37756 21.3768 4.10156C19.505 3.6 12 3.6 12 3.6C12 3.6 4.49498 3.6 2.62317 4.10156C1.5907 4.37756 0.777375 5.1907 0.501422 6.22336C0 8.09498 0 12.0001 0 12.0001C0 12.0001 0 15.9052 0.501422 17.7766C0.777375 18.8093 1.5907 19.6227 2.62317 19.8986C4.49498 20.4 12 20.4 12 20.4C12 20.4 19.505 20.4 21.3768 19.8986C22.4094 19.6227 23.2226 18.8093 23.4986 17.7766C24 15.9052 24 12.0001 24 12.0001C24 12.0001 24 8.09498 23.4986 6.22336ZM9.59986 15.6002V8.40005L15.8351 12.0001L9.59986 15.6002Z" fill="#3C3C3B"/>
</svg>
