<svg width="16" height="16" viewBox="0 0 16 16" fill="none" xmlns="http://www.w3.org/2000/svg">
<path d="M5.82599 8.2525L5.21997 7.64648L3.80598 9.06049C3.63759 9.22887 3.63759 9.49813 3.80598 9.6665L5.21997 11.0805L5.82599 10.4745L5.13578 9.78439H7.42515V8.92591L5.13578 8.92579L5.82599 8.2525Z" fill="black" fill-opacity="0.6"/>
<path d="M10.7755 7.64648L10.1695 8.2525L10.8597 8.94271H8.57031V9.80119H10.8597L10.1695 10.4914L10.7755 11.0974L12.1895 9.68342C12.3579 9.51503 12.3579 9.24577 12.1895 9.07741L10.7755 7.64648Z" fill="black" fill-opacity="0.6"/>
<path d="M15.8924 5.39098L8.13204 0.037869C8.04785 -0.012623 7.94686 -0.012623 7.86267 0.037869L0.102355 5.39098C0.00137078 5.45826 -0.0323297 5.60985 0.0350711 5.72762L0.354941 6.18216C0.388641 6.23265 0.439133 6.26635 0.506417 6.28314C0.5737 6.29993 0.624309 6.28314 0.691593 6.24944L1.88684 5.42456V15.7895C1.88684 15.9242 1.98783 16 2.12251 16H2.67802C2.8127 16 2.91369 15.9242 2.91369 15.7895L2.91357 4.91955C2.91357 4.78487 2.98085 4.65019 3.09874 4.58291L7.76167 1.36768C7.82895 1.31719 7.91315 1.30039 7.99733 1.30039C8.08152 1.30039 8.16572 1.31719 8.233 1.36768L12.8959 4.58291C13.0138 4.6671 13.0811 4.78488 13.0811 4.91955V15.7895C13.0811 15.9242 13.1821 16 13.3168 16H13.8723C14.007 16 14.1079 15.9242 14.1079 15.7895V5.40773L15.3032 6.23261C15.3537 6.26631 15.4211 6.2831 15.4884 6.26631C15.5557 6.24952 15.6063 6.21582 15.6398 6.16532L15.9597 5.71078C15.9934 5.66029 16.0102 5.59289 15.9934 5.52561C15.9765 5.47512 15.9428 5.42451 15.8923 5.39092L15.8924 5.39098Z" fill="black" fill-opacity="0.6"/>
</svg>
