<svg width="16" height="16" viewBox="0 0 16 16" fill="none" xmlns="http://www.w3.org/2000/svg">
<path fill-rule="evenodd" clip-rule="evenodd" d="M8 1.33333C4.318 1.33333 1.33333 4.3181 1.33333 8C1.33333 11.6819 4.3181 14.6667 8 14.6667C11.6819 14.6667 14.6667 11.6819 14.6667 8C14.6667 4.3181 11.6819 1.33333 8 1.33333ZM0 8C0 3.58167 3.58167 0 8 0C12.4183 0 16 3.58167 16 8C16 12.4183 12.4183 16 8 16C3.58167 16 0 12.4183 0 8Z" fill="black" fill-opacity="0.6"/>
<path fill-rule="evenodd" clip-rule="evenodd" d="M7.99868 3.33317C8.36691 3.33317 8.66534 3.63161 8.66534 3.99984V7.72351L10.8034 9.86168C11.0638 10.122 11.0638 10.5441 10.8034 10.8044C10.5431 11.0648 10.1209 11.0648 9.86068 10.8044L7.52734 8.47104C7.40234 8.34604 7.33203 8.17651 7.33203 7.99967V3.99967C7.33203 3.63144 7.63047 3.33301 7.9987 3.33301L7.99868 3.33317Z" fill="black" fill-opacity="0.6"/>
</svg>
