<svg width="16" height="16" viewBox="0 0 16 16" fill="none" xmlns="http://www.w3.org/2000/svg">
<path d="M15.4667 11.2H12.2667V8C12.2667 7.68 12.0533 7.46667 11.7333 7.46667H8.53333V4.26667C8.53333 3.94667 8.32 3.73333 8 3.73333H4.8V0.533333C4.8 0.213333 4.58667 0 4.26667 0H0.533333C0.213333 0 0 0.213333 0 0.533333V15.4667C0 15.7867 0.213333 16 0.533333 16H15.4667C15.7867 16 16 15.7867 16 15.4667V11.7333C16 11.4133 15.7867 11.2 15.4667 11.2ZM14.9333 14.9333H1.06667V1.06667H3.73333V4.26667C3.73333 4.58667 3.94667 4.8 4.26667 4.8H7.46667V8C7.46667 8.32 7.68 8.53333 8 8.53333H11.2V11.7333C11.2 12.0533 11.4133 12.2667 11.7333 12.2667H14.9333V14.9333Z" fill="black" fill-opacity="0.6"/>
</svg>
